<?xml version="1.0" encoding="UTF-8" standalone="no"?>
<svg xmlns="http://www.w3.org/2000/svg"
   xmlns:dc="http://purl.org/dc/elements/1.1/"
   xmlns:cc="http://creativecommons.org/ns#"
   xmlns:rdf="http://www.w3.org/1999/02/22-rdf-syntax-ns#"
   width="1001" height="965" viewBox="1.5 1.5 163.29192 157.41913"
   version="1.0">
  <metadata>
    <rdf:RDF>
      <cc:Work rdf:about="">
        <dc:format>image/svg+xml</dc:format>
        <dc:type rdf:resource="http://purl.org/dc/dcmitype/StillImage" />
      </cc:Work>
    </rdf:RDF>
  </metadata>
  <g transform="translate(-17.309195,-26.598969)">
    <g style="font-size:10px;font-style:normal;font-variant:normal;font-weight:normal;font-stretch:normal;text-align:start;line-height:125%;letter-spacing:0px;word-spacing:0px;writing-mode:lr-tb;text-anchor:start;fill:#000000;fill-opacity:1;stroke:none;font-family:Times New Roman">
      <path
         d="m 100.08485,97.637146 -2.563472,0 -0.449219,1.044922 c -0.110679,0.257162 -0.166017,0.449219 -0.166016,0.576172 -10e-7,0.100912 0.04801,0.189616 0.144043,0.266113 0.09603,0.0765 0.303546,0.12614 0.622559,0.148926 l 0,0.180664 -2.084961,0 0,-0.180664 c 0.276692,-0.04883 0.455728,-0.112305 0.537109,-0.19043 0.166015,-0.156249 0.349934,-0.473632 0.551758,-0.952148 l 2.329102,-5.449219 0.170898,0 2.304689,5.507812 c 0.18554,0.44271 0.354,0.729981 0.50537,0.861817 0.15136,0.131836 0.36213,0.205892 0.63232,0.222168 l 0,0.180664 -2.6123,0 0,-0.180664 c 0.26367,-0.01302 0.44189,-0.05697 0.53467,-0.131836 0.0928,-0.07487 0.13915,-0.166015 0.13916,-0.273438 -1e-5,-0.143228 -0.0651,-0.369465 -0.19532,-0.678711 z m -0.136715,-0.361328 -1.123046,-2.675781 -1.152344,2.675781 z"/>
      <path
         d="m 114.03796,99.256897 c 0.45898,0.09766 0.80241,0.253909 1.03028,0.46875 0.31575,0.299483 0.47362,0.665693 0.47363,1.098633 -1e-5,0.32878 -0.10417,0.64372 -0.3125,0.94482 -0.20834,0.30111 -0.49398,0.52084 -0.85693,0.65918 -0.36296,0.13835 -0.91716,0.20752 -1.6626,0.20752 l -3.125,0 0,-0.18066 0.24902,0 c 0.27669,0 0.47526,-0.0879 0.59571,-0.26367 0.0749,-0.11393 0.1123,-0.35645 0.1123,-0.72754 l 0,-4.277346 c 0,-0.41015 -0.0472,-0.668939 -0.1416,-0.776367 -0.12696,-0.143223 -0.31576,-0.214837 -0.56641,-0.214843 l -0.24902,0 0,-0.180665 2.86133,0 c 0.53385,7e-6 0.96191,0.03907 1.28418,0.117188 0.48827,0.117194 0.86099,0.324713 1.11816,0.622559 0.25716,0.297857 0.38574,0.640467 0.38574,1.027832 0,0.332035 -0.10091,0.629073 -0.30273,0.891113 -0.20183,0.262048 -0.49968,0.456546 -0.89356,0.583496 z m -2.55859,-0.263672 c 0.12044,0.02279 0.25797,0.03988 0.4126,0.05127 0.15462,0.0114 0.3247,0.01709 0.51025,0.01709 0.47526,4e-6 0.83252,-0.05127 1.07178,-0.153808 0.23925,-0.102535 0.42236,-0.259599 0.54932,-0.471192 0.12694,-0.211584 0.19042,-0.442703 0.19043,-0.693359 -1e-5,-0.387364 -0.15789,-0.717768 -0.47364,-0.991211 -0.31576,-0.273431 -0.77637,-0.41015 -1.38183,-0.410156 -0.32553,6e-6 -0.6185,0.03581 -0.87891,0.107422 z m 0,3.164065 c 0.3776,0.0879 0.75032,0.13183 1.11816,0.13183 0.58919,0 1.03841,-0.13265 1.34766,-0.39795 0.30924,-0.26529 0.46386,-0.59326 0.46387,-0.98388 -1e-5,-0.25716 -0.07,-0.50456 -0.20996,-0.74219 -0.13998,-0.237627 -0.36785,-0.424802 -0.6836,-0.561523 -0.31576,-0.136716 -0.70638,-0.205075 -1.17187,-0.205078 -0.20183,3e-6 -0.37435,0.0033 -0.51758,0.0098 -0.14323,0.0065 -0.25879,0.01791 -0.34668,0.03418 z"/>
      <path
         d="m 80.29361,120.12394 0.02441,1.54785 -0.19043,0 c -0.01303,-0.31249 -0.07976,-0.56314 -0.200195,-0.75195 -0.120448,-0.1888 -0.267746,-0.30843 -0.441895,-0.35889 -0.174158,-0.0505 -0.425623,-0.0757 -0.754394,-0.0757 l -1.855469,0 0,5.05371 c -2e-6,0.4362 0.05615,0.71289 0.168457,0.83008 0.112302,0.11718 0.371905,0.18229 0.778808,0.19531 l 0,0.18066 -2.841796,0 0,-0.18066 c 0.410155,-0.013 0.672199,-0.0781 0.786132,-0.19531 0.113932,-0.11719 0.170898,-0.39388 0.170899,-0.83008 l 0,-4.20899 c -10e-7,-0.43619 -0.05697,-0.71288 -0.170899,-0.83007 -0.113933,-0.11719 -0.375977,-0.18229 -0.786132,-0.19532 l 0,-0.18066 z"/>
      <path transform="translate(-2.5288348,-3.5403686)"
         d="m 38.26255,108.81763 2.96875,-6.77246 0.166016,0 2.802734,6.77246 z m 4.770508,-0.41504 -1.977539,-4.86328 -2.138672,4.86328 z"/>
      <path
         d="m 99.454056,117.70341 0,2.61719 1.455074,0 c 0.3776,1e-5 0.62988,-0.057 0.75684,-0.1709 0.16927,-0.14973 0.26367,-0.4134 0.2832,-0.79101 l 0.18067,0 0,2.30469 -0.18067,0 c -0.0456,-0.32227 -0.0911,-0.52897 -0.13672,-0.62012 -0.0586,-0.11393 -0.15462,-0.20345 -0.28808,-0.26856 -0.13347,-0.0651 -0.33855,-0.0977 -0.61524,-0.0977 l -1.455074,0 0,2.18261 c -2e-6,0.29297 0.01302,0.4712 0.03906,0.53467 0.02604,0.0635 0.07161,0.11394 0.136719,0.15137 0.0651,0.0374 0.1888,0.0562 0.371095,0.0562 l 1.12305,0 c 0.37434,0 0.64615,-0.026 0.81543,-0.0781 0.16926,-0.0521 0.33202,-0.15462 0.48828,-0.30762 0.20182,-0.20182 0.40852,-0.50618 0.62012,-0.91309 l 0.19531,0 -0.57129,1.66016 -5.102542,0 0,-0.18066 0.234375,0 c 0.15625,0 0.304361,-0.0374 0.444336,-0.11231 0.104166,-0.0521 0.174966,-0.13021 0.212402,-0.23437 0.03743,-0.10417 0.05615,-0.31739 0.05615,-0.63965 l 0,-4.30176 c -1e-6,-0.41992 -0.04232,-0.6787 -0.126953,-0.77637 -0.117189,-0.1302 -0.312501,-0.1953 -0.585938,-0.19531 l -0.234375,0 0,-0.18066 5.102545,0 0.0732,1.45019 -0.19043,0 c -0.0684,-0.3483 -0.14405,-0.58756 -0.22705,-0.71777 -0.083,-0.1302 -0.2059,-0.22949 -0.36865,-0.29785 -0.13021,-0.0488 -0.35971,-0.0732 -0.68848,-0.0733 z"/>
      <path
         d="m 104.66164,66.650879 -4.35059,6.220703 2.71484,0 c 0.41667,0 0.73649,-0.09114 0.95948,-0.273437 0.22297,-0.182291 0.42073,-0.551757 0.59326,-1.108399 l 0.16113,0.0293 -0.3125,1.75293 -5.390624,0 0,-0.180664 4.248044,-6.044922 -2.11914,0 c -0.35156,6e-6 -0.60628,0.03826 -0.76416,0.114746 -0.15788,0.0765 -0.27832,0.18718 -0.36133,0.332031 -0.08301,0.144862 -0.158688,0.415858 -0.227046,0.812988 l -0.185547,0 0.136718,-1.655273 z"/>
      <path
         d="m 105.91085,87.031387 3.07617,0 0,-1.894531 c 0,-0.338536 -0.0212,-0.561517 -0.0635,-0.668945 -0.0326,-0.08137 -0.10092,-0.151361 -0.20508,-0.209961 -0.13998,-0.07812 -0.28809,-0.117181 -0.44434,-0.117188 l -0.23437,0 0,-0.180664 2.83203,0 0,0.180664 -0.23438,0 c -0.15625,7e-6 -0.30437,0.03744 -0.44433,0.112305 -0.10418,0.05209 -0.17498,0.131028 -0.21241,0.236816 -0.0374,0.105801 -0.0562,0.321458 -0.0562,0.646973 l 0,4.272461 c 0,0.335287 0.0212,0.556641 0.0635,0.664063 0.0325,0.08138 0.0993,0.151367 0.20019,0.20996 0.14323,0.07813 0.29297,0.117188 0.44922,0.117188 l 0.23438,0 0,0.180664 -2.83203,0 0,-0.180664 0.23437,0 c 0.27018,0 0.46712,-0.07975 0.59082,-0.239258 0.0814,-0.104166 0.12207,-0.354817 0.12207,-0.751953 l 0,-2.016602 -3.07617,0 0,2.016602 c 0,0.335287 0.0212,0.556641 0.0635,0.664063 0.0326,0.08138 0.10091,0.151367 0.20508,0.20996 0.13997,0.07813 0.28808,0.117188 0.44433,0.117188 l 0.23926,0 0,0.180664 -2.83692,0 0,-0.180664 0.23438,0 c 0.27344,0 0.472,-0.07975 0.5957,-0.239258 0.0781,-0.104166 0.11719,-0.354817 0.11719,-0.751953 l 0,-4.272461 c 0,-0.338536 -0.0212,-0.561517 -0.0635,-0.668945 -0.0326,-0.08137 -0.0993,-0.151361 -0.20019,-0.209961 -0.14323,-0.07812 -0.29297,-0.117181 -0.44922,-0.117188 l -0.23438,0 0,-0.180664 2.83692,0 0,0.180664 -0.23926,0 c -0.15625,7e-6 -0.30436,0.03744 -0.44433,0.112305 -0.10092,0.05209 -0.17091,0.131028 -0.20997,0.236816 -0.0391,0.105801 -0.0586,0.321458 -0.0586,0.646973 z"/>
      <path
         d="m 47.567924,56.917637 c 0.810543,7e-6 1.542964,0.31332 2.197266,0.939941 0.65429,0.626633 0.981439,1.455897 0.981445,2.487793 -6e-6,1.025393 -0.322272,1.864422 -0.966796,2.51709 -0.644537,0.65267 -1.407883,0.979004 -2.29004,0.979004 -0.97982,0 -1.762697,-0.343424 -2.348632,-1.030273 -0.585938,-0.686848 -0.878907,-1.505532 -0.878907,-2.456055 0,-1.028642 0.32959,-1.858719 0.98877,-2.490235 0.659178,-0.631503 1.431475,-0.947258 2.316894,-0.947265 z m -0.09277,0.356445 c -0.631513,7e-6 -1.138511,0.261237 -1.520996,0.783692 -0.382489,0.522466 -0.573732,1.281742 -0.573731,2.277832 -10e-7,0.930992 0.179035,1.690268 0.53711,2.277832 0.35807,0.587565 0.878903,0.881348 1.5625,0.881347 0.664058,10e-7 1.188146,-0.257974 1.572265,-0.773925 0.38411,-0.51595 0.576167,-1.26546 0.576172,-2.248536 -5e-6,-0.996089 -0.179855,-1.778152 -0.53955,-2.346191 -0.359706,-0.568028 -0.897628,-0.852044 -1.61377,-0.852051 z m -1.147461,1.923828 0.185547,0 c -3e-6,0.279952 0.05696,0.480148 0.170898,0.600586 0.11393,0.120447 0.323891,0.180668 0.629883,0.180664 l 0.395508,0 c 0.289709,4e-6 0.49316,-0.0594 0.610352,-0.178222 0.117183,-0.118811 0.175776,-0.31982 0.175781,-0.603028 l 0.185547,0 0,2.358399 -0.185547,0 c -5e-6,-0.276691 -0.05697,-0.475258 -0.170899,-0.595703 -0.113936,-0.12044 -0.322269,-0.180662 -0.625,-0.180664 l -0.405273,0 c -0.289717,2e-6 -0.492353,0.06022 -0.60791,0.180664 -0.115563,0.120445 -0.173343,0.319012 -0.17334,0.595703 l -0.185547,0 z"/>
      <path
         d="m 117.14117,68.454918 0,0.180664 -2.83691,0 0,-0.180664 0.23438,0 c 0.27343,0 0.472,-0.07975 0.5957,-0.239258 0.0781,-0.104166 0.11718,-0.354817 0.11719,-0.751953 l 0,-4.277344 c -1e-5,-0.33528 -0.0212,-0.556634 -0.0635,-0.664062 -0.0326,-0.08137 -0.0993,-0.151361 -0.2002,-0.209961 -0.14323,-0.07812 -0.29297,-0.117181 -0.44921,-0.117188 l -0.23438,0 0,-0.180664 2.83691,0 0,0.180664 -0.23925,0 c -0.27019,7e-6 -0.46713,0.07976 -0.59082,0.239258 -0.0814,0.104173 -0.12208,0.354824 -0.12207,0.751953 l 0,4.277344 c -1e-5,0.335287 0.0211,0.556641 0.0635,0.664062 0.0326,0.08138 0.10091,0.151368 0.20508,0.209961 0.13997,0.07813 0.28808,0.117188 0.44434,0.117188 z"/>
      <path
         d="m 101.27976,107.30942 2.44141,2.42676 c 0.40038,0.40039 0.74218,0.67301 1.02539,0.81787 0.2832,0.14485 0.5664,0.22705 0.84961,0.24658 l 0,0.18066 -3.14942,0 0,-0.18066 c 0.1888,0 0.32471,-0.0317 0.40772,-0.0952 0.083,-0.0635 0.12451,-0.13427 0.12451,-0.2124 0,-0.0781 -0.0155,-0.14811 -0.0464,-0.20996 -0.0309,-0.0619 -0.13265,-0.17741 -0.30517,-0.34668 l -2.28516,-2.26074 0,2.13379 c 0,0.33529 0.0212,0.55664 0.0635,0.66406 0.0326,0.0814 0.10091,0.15137 0.20508,0.20996 0.13997,0.0781 0.28808,0.11719 0.44433,0.11719 l 0.22461,0 0,0.18066 -2.822263,0 0,-0.18066 0.234375,0 c 0.273436,0 0.472004,-0.0798 0.595703,-0.23926 0.07812,-0.10417 0.117186,-0.35482 0.117187,-0.75195 l 0,-4.27735 c -10e-7,-0.33528 -0.02116,-0.55826 -0.06348,-0.66894 -0.03255,-0.0781 -0.09928,-0.14648 -0.200196,-0.20508 -0.143229,-0.0781 -0.292969,-0.11718 -0.449218,-0.11719 l -0.234375,0 0,-0.18066 2.822267,0 0,0.18066 -0.22461,0 c -0.15299,1e-5 -0.30111,0.0374 -0.44433,0.11231 -0.10092,0.0521 -0.1709,0.13021 -0.20996,0.23437 -0.0391,0.10418 -0.0586,0.31902 -0.0586,0.64453 l 0,2.02637 c 0.0651,-0.0618 0.28809,-0.26855 0.66895,-0.62012 0.96679,-0.88541 1.5511,-1.47623 1.75293,-1.77246 0.0879,-0.1302 0.13183,-0.24413 0.13183,-0.34179 0,-0.0749 -0.0342,-0.14079 -0.10254,-0.19776 -0.0684,-0.057 -0.18392,-0.0854 -0.34668,-0.0855 l -0.15136,0 0,-0.18066 2.43164,0 0,0.18066 c -0.14324,0.003 -0.27345,0.0228 -0.39063,0.0586 -0.11719,0.0358 -0.26042,0.10498 -0.42968,0.20752 -0.16928,0.10254 -0.37761,0.26774 -0.625,0.4956 -0.0716,0.0651 -0.40203,0.39877 -0.99122,1.00098 z"/>
      <path
         d="m 41.246056,119.01769 0,-0.18066 c 0.25065,-0.0391 0.442707,-0.12044 0.576171,-0.24414 0.133463,-0.1237 0.273437,-0.36133 0.419922,-0.71289 l 2.309571,-5.63477 0.180664,0 2.460937,5.66406 c 0.16601,0.38412 0.309239,0.63233 0.429688,0.74463 0.120436,0.11231 0.332024,0.17334 0.634765,0.18311 l 0,0.18066 -2.700195,0 0,-0.18066 c 0.30924,-0.026 0.508621,-0.0781 0.598145,-0.15625 0.08951,-0.0781 0.134272,-0.17904 0.134277,-0.30274 -5e-6,-0.15299 -0.07487,-0.40201 -0.224609,-0.74707 l -1.684571,-3.88183 -1.5625,3.83301 c -0.146486,0.35481 -0.219728,0.61523 -0.219726,0.78125 -2e-6,0.13671 0.04557,0.24495 0.136718,0.3247 0.09115,0.0798 0.275064,0.1294 0.551758,0.14893 l 0,0.18066 z"/>
      <path
         d="m 85.074089,103.87215 -2.558594,-5.571292 0,4.423832 c -10e-7,0.4069 0.04394,0.6608 0.131836,0.76171 0.120441,0.13672 0.310871,0.20508 0.571289,0.20508 l 0.234375,0 0,0.18067 -2.304687,0 0,-0.18067 0.234375,0 c 0.279947,0 0.478515,-0.0846 0.595703,-0.2539 0.07161,-0.10417 0.107421,-0.3418 0.107422,-0.71289 l 0,-4.326176 c -10e-7,-0.292963 -0.03255,-0.504552 -0.09766,-0.634766 -0.04557,-0.0944 -0.129396,-0.173333 -0.251465,-0.236816 -0.122071,-0.06347 -0.318197,-0.09521 -0.588379,-0.09521 l 0,-0.180664 1.875,0 2.402344,5.180672 2.363281,-5.180672 1.875,0 0,0.180664 -0.229492,0 c -0.283212,6e-6 -0.483407,0.08464 -0.600586,0.253906 -0.07162,0.104173 -0.10743,0.341803 -0.107422,0.712891 l 0,4.326171 c -8e-6,0.4069 0.04556,0.6608 0.136719,0.76171 0.120434,0.13672 0.310864,0.20508 0.571289,0.20508 l 0.229492,0 0,0.18067 -2.8125,0 0,-0.18067 0.234375,0 c 0.283197,0 0.481764,-0.0846 0.595703,-0.2539 0.07161,-0.10417 0.107415,-0.3418 0.107422,-0.71289 l 0,-4.423827 -2.553711,5.571287 z"/>
      <path
         d="m 85.795944,59.54174 1.796875,0 4.047852,4.965821 0,-3.81836 c -6e-6,-0.406895 -0.04558,-0.660801 -0.136719,-0.761718 -0.120448,-0.136713 -0.310878,-0.205072 -0.571289,-0.205079 l -0.229492,0 0,-0.180664 2.304687,0 0,0.180664 -0.234375,0 c -0.279954,7e-6 -0.478522,0.08464 -0.595703,0.253907 -0.07162,0.104172 -0.107428,0.341802 -0.107422,0.71289 l 0,5.581055 -0.175781,0 -4.365234,-5.332031 0,4.077148 c -2e-6,0.406902 0.04394,0.660808 0.131836,0.761719 0.123696,0.136719 0.314125,0.205078 0.571289,0.205078 l 0.234375,0 0,0.180664 -2.304688,0 0,-0.180664 0.229492,0 c 0.283203,0 0.483398,-0.08463 0.600586,-0.253906 0.07161,-0.104166 0.107421,-0.341796 0.107422,-0.712891 l 0,-4.604492 c -0.192058,-0.224603 -0.337729,-0.372715 -0.437012,-0.444336 -0.09928,-0.07161 -0.244954,-0.13834 -0.437011,-0.200195 -0.0944,-0.02929 -0.237631,-0.04394 -0.429688,-0.04395 z"/>
      <path
         d="m 67.045761,45.323483 5.249024,0 0,1.61621 -0.185547,0 c -0.01954,-0.266921 -0.107428,-0.46142 -0.263672,-0.583496 -0.156255,-0.122064 -0.402023,-0.183099 -0.737305,-0.183105 l -2.905273,0 c -0.621746,6e-6 -0.945639,0.255539 -0.97168,0.766601 l -0.185547,0 z m 0.898438,2.231445 0.185546,0 c -10e-7,0.299483 0.07161,0.493168 0.214844,0.581055 0.143227,0.08789 0.372719,0.131839 0.688477,0.131835 l 1.274414,0 c 0.322261,4e-6 0.553381,-0.04394 0.693359,-0.131835 0.13997,-0.08789 0.209956,-0.281572 0.209961,-0.581055 l 0.180664,0 0,2.192383 -0.180664,0 c -5e-6,-0.260415 -0.05941,-0.445147 -0.178222,-0.5542 -0.11882,-0.109046 -0.360519,-0.163571 -0.725098,-0.163574 l -1.274414,0 c -0.377607,3e-6 -0.622561,0.05697 -0.734863,0.170899 -0.112307,0.113935 -0.168459,0.296226 -0.168458,0.546875 l -0.185546,0 z m -1.103516,2.529297 0.180664,0 0,0.117187 c -1e-6,0.247398 0.0415,0.434572 0.124512,0.561524 0.08301,0.126954 0.189615,0.210775 0.319824,0.251464 0.130207,0.04069 0.33854,0.06104 0.625,0.06104 l 3.212891,0 c 0.354812,10e-7 0.611973,-0.06022 0.771484,-0.180664 0.159499,-0.120442 0.239252,-0.351562 0.239258,-0.69336 l 0,-0.117187 0.185547,0 0,1.860351 -5.65918,0 z"/>
      <path
         d="m 81.857697,85.663269 c 0.85937,7e-6 1.603998,0.326341 2.233886,0.979004 0.629877,0.652674 0.944818,1.467289 0.944824,2.443848 -6e-6,1.005861 -0.317389,1.840821 -0.952148,2.504882 -0.634771,0.664063 -1.402999,0.996094 -2.304687,0.996094 -0.911461,0 -1.677248,-0.323893 -2.297364,-0.97168 -0.620118,-0.647785 -0.930176,-1.486 -0.930176,-2.514648 0,-1.051428 0.358073,-1.909174 1.074219,-2.573242 0.621743,-0.576166 1.365557,-0.864251 2.231446,-0.864258 z m -0.09277,0.356445 c -0.592451,7e-6 -1.067711,0.219733 -1.425781,0.65918 -0.445965,0.54688 -0.668947,1.347661 -0.668945,2.402344 -2e-6,1.080731 0.231118,1.912436 0.693359,2.495117 0.354815,0.442709 0.823565,0.664063 1.40625,0.664062 0.621741,1e-6 1.135249,-0.242512 1.540527,-0.727539 0.405268,-0.485024 0.607905,-1.249997 0.60791,-2.294921 -5e-6,-1.132809 -0.222987,-1.977534 -0.668945,-2.53418 -0.358078,-0.442702 -0.852869,-0.664056 -1.484375,-0.664063 z"/>
      <path
         d="m 64.492294,116.77613 -3.071289,0 0,5.05371 c -2e-6,0.4362 0.05615,0.71289 0.168457,0.83008 0.112303,0.11719 0.37516,0.18229 0.788574,0.19531 l 0,0.18067 -2.851562,0 0,-0.18067 c 0.410156,-0.013 0.6722,-0.0781 0.786133,-0.19531 0.113931,-0.11719 0.170897,-0.39388 0.170898,-0.83008 l 0,-4.20898 c -10e-7,-0.43619 -0.05697,-0.71289 -0.170898,-0.83008 -0.113933,-0.11718 -0.375977,-0.18229 -0.786133,-0.19531 l 0,-0.18067 6.860352,0 0,0.18067 c -0.410163,0.013 -0.672207,0.0781 -0.786133,0.19531 -0.113939,0.11719 -0.170905,0.39389 -0.170899,0.83008 l 0,4.20898 c -6e-6,0.4362 0.05696,0.71289 0.170899,0.83008 0.113926,0.11719 0.37597,0.18229 0.786133,0.19531 l 0,0.18067 -2.84668,0 0,-0.18067 c 0.406896,-0.013 0.667313,-0.0773 0.78125,-0.19287 0.113927,-0.11556 0.170893,-0.39306 0.170898,-0.83252 z"/>
      <path
         d="m 117.65146,89.953316 0,1.928711 c 0,0.416667 0.0456,0.675456 0.13672,0.776367 0.12369,0.143229 0.31087,0.214844 0.56152,0.214844 l 0.25391,0 0,0.180664 -2.83692,0 0,-0.180664 0.24903,0 c 0.27994,0 0.48014,-0.09115 0.60058,-0.273438 0.0651,-0.100911 0.0977,-0.340168 0.0977,-0.717773 l 0,-4.277344 c 0,-0.416661 -0.0439,-0.67545 -0.13184,-0.776367 -0.12695,-0.143223 -0.31575,-0.214838 -0.5664,-0.214844 l -0.24903,0 0,-0.180664 2.42676,0 c 0.59245,7e-6 1.05957,0.06104 1.40137,0.183105 0.34179,0.122077 0.62988,0.327969 0.86426,0.617676 0.23437,0.289719 0.35155,0.633143 0.35156,1.030274 -1e-5,0.540368 -0.17823,0.979821 -0.53467,1.318359 -0.35645,0.338545 -0.86019,0.507815 -1.51123,0.507812 -0.15951,3e-6 -0.33203,-0.01139 -0.51758,-0.03418 -0.18555,-0.02278 -0.38411,-0.05696 -0.5957,-0.102539 z m 0,-0.278321 c 0.17252,0.03256 0.32552,0.05697 0.45898,0.07324 0.13346,0.01628 0.2474,0.02442 0.3418,0.02441 0.33854,3e-6 0.63069,-0.131019 0.87646,-0.393067 0.24577,-0.26204 0.36865,-0.601395 0.36866,-1.018066 -1e-5,-0.286453 -0.0586,-0.552567 -0.17578,-0.79834 -0.1172,-0.245762 -0.28321,-0.429682 -0.49805,-0.551758 -0.21485,-0.122064 -0.45899,-0.183099 -0.73242,-0.183105 -0.16602,6e-6 -0.37924,0.03093 -0.63965,0.09277 z"/>
      <path
         d="m 32.301899,79.014587 4.96582,0 0.131836,1.665039 -0.185547,0 c -0.02279,-0.32877 -0.07813,-0.580235 -0.166015,-0.754394 -0.0879,-0.174148 -0.208338,-0.300287 -0.361328,-0.378418 -0.153,-0.07812 -0.395512,-0.117181 -0.727539,-0.117188 l -2.260743,0 2.016602,2.587891 -2.294922,2.709961 2.514648,0 c 0.455725,10e-7 0.804032,-0.07324 1.044922,-0.219727 0.240881,-0.146483 0.421545,-0.452472 0.541993,-0.917968 l 0.185546,0.04395 -0.283203,2.001953 -5.12207,0 0,-0.175781 2.548828,-3.007813 -2.548828,-3.261718 z"/>
      <path
         d="m 96.968491,83.341896 0.07324,1.552734 -0.185547,0 c -0.03581,-0.273432 -0.08464,-0.468744 -0.146484,-0.585937 -0.100917,-0.188796 -0.235195,-0.327956 -0.402832,-0.417481 -0.167649,-0.08951 -0.388189,-0.134271 -0.661622,-0.134277 l -0.932617,0 0,5.058594 c -3e-6,0.406902 0.04394,0.660808 0.131836,0.761719 0.123694,0.136719 0.314124,0.205078 0.571289,0.205078 l 0.229492,0 0,0.180664 -2.807617,0 0,-0.180664 0.234375,0 c 0.279946,0 0.478513,-0.08463 0.595703,-0.253907 0.07161,-0.104166 0.10742,-0.341796 0.107422,-0.71289 l 0,-5.058594 -0.795898,0 c -0.309246,6e-6 -0.528973,0.02279 -0.65918,0.06836 -0.169272,0.06186 -0.314128,0.180671 -0.43457,0.356446 -0.120444,0.175787 -0.192058,0.413417 -0.214844,0.71289 l -0.185547,0 0.07813,-1.552734 z"/>
      <path
         d="m 112.02081,108.3784 2.30957,0 0,0.18067 -0.12696,0 c -0.0846,0 -0.20834,0.0374 -0.37109,0.1123 -0.16277,0.0749 -0.31088,0.1823 -0.44434,0.32227 -0.13347,0.13998 -0.29785,0.36784 -0.49316,0.68359 l -1.59668,2.51465 0,1.66016 c 0,0.4069 0.0456,0.6608 0.13672,0.76171 0.12369,0.13672 0.319,0.20508 0.58594,0.20508 l 0.21484,0 0,0.18067 -2.8125,0 0,-0.18067 0.23437,0 c 0.27995,0 0.47852,-0.0846 0.59571,-0.2539 0.0716,-0.10417 0.10742,-0.3418 0.10742,-0.71289 l 0,-1.56739 -1.81641,-2.77343 c -0.21484,-0.32552 -0.36051,-0.52897 -0.43701,-0.61036 -0.0765,-0.0814 -0.23519,-0.17903 -0.47607,-0.29297 -0.0651,-0.0325 -0.15951,-0.0488 -0.28321,-0.0488 l 0,-0.18067 2.83204,0 0,0.18067 -0.14649,0 c -0.153,0 -0.29378,0.0358 -0.42236,0.10742 -0.12859,0.0716 -0.19288,0.17904 -0.19287,0.32226 -1e-5,0.1172 0.0993,0.32879 0.29785,0.63477 l 1.38183,2.13379 1.29883,-2.04102 c 0.19531,-0.30598 0.29297,-0.53385 0.29297,-0.68359 0,-0.0911 -0.0236,-0.17252 -0.0708,-0.24414 -0.0472,-0.0716 -0.11475,-0.12776 -0.20264,-0.16846 -0.0879,-0.0407 -0.21973,-0.061 -0.3955,-0.061 z"/>
      <path
         d="m 66.24873,107.57594 c 0.04231,0.50131 0.354813,0.75196 0.9375,0.75196 l 0,0.18066 -2.8125,0 0,-0.18066 c 0.582679,0 0.895179,-0.25065 0.9375,-0.75196 -0.859378,0 -1.54704,-0.23112 -2.062989,-0.69336 -0.515951,-0.46223 -0.773926,-1.02376 -0.773925,-1.68457 -1e-6,-0.70637 0.262043,-1.27034 0.786132,-1.69189 0.524087,-0.42155 1.20768,-0.65022 2.050782,-0.68604 -0.03907,-0.50129 -0.351566,-0.75194 -0.9375,-0.75195 l 0,-0.18066 2.8125,0 0,0.18066 c -0.582687,1e-5 -0.895187,0.25066 -0.9375,0.75195 0.930984,0.0293 1.63655,0.27426 2.116699,0.73487 0.480136,0.46061 0.720208,1.0083 0.720215,1.64306 -7e-6,0.66081 -0.257168,1.22234 -0.771485,1.68457 -0.514328,0.46224 -1.202804,0.69336 -2.065429,0.69336 z m -0.9375,-4.4873 c -0.556644,0.0326 -0.992841,0.2059 -1.308594,0.52002 -0.315757,0.31413 -0.473634,0.87158 -0.473633,1.67236 -1e-6,1.28256 0.594074,1.95801 1.782227,2.02637 z m 0.9375,0 0,4.21875 c 0.537104,-0.0228 0.969233,-0.1888 1.296386,-0.49805 0.327143,-0.30924 0.490717,-0.87239 0.490723,-1.68945 -6e-6,-1.2858 -0.595708,-1.96289 -1.787109,-2.03125 z"/>
      <path
         d="m 91.555283,111.02341 1.420898,2.11914 c 0.393874,0.58594 0.686029,0.95622 0.876465,1.11084 0.190423,0.15462 0.432122,0.24007 0.725098,0.25635 l 0,0.18066 -2.841797,0 0,-0.18066 c 0.188797,-0.003 0.328771,-0.0228 0.419922,-0.0586 0.06835,-0.0293 0.124506,-0.074 0.168457,-0.13428 0.04394,-0.0602 0.06591,-0.12125 0.06592,-0.1831 -5e-6,-0.0749 -0.01465,-0.14974 -0.04395,-0.22461 -0.02279,-0.0553 -0.112309,-0.19857 -0.268554,-0.42969 l -1.123047,-1.69922 -1.386719,1.77735 c -0.146486,0.1888 -0.234377,0.31494 -0.263672,0.37841 -0.0293,0.0635 -0.04395,0.1294 -0.04394,0.19776 -2e-6,0.10417 0.04394,0.19043 0.131836,0.25879 0.08789,0.0684 0.255531,0.10742 0.502929,0.11719 l 0,0.18066 -2.348632,0 0,-0.18066 c 0.166015,-0.0163 0.309244,-0.0505 0.429687,-0.10254 0.201822,-0.0846 0.393879,-0.19857 0.576172,-0.3418 0.18229,-0.14323 0.390623,-0.36296 0.625,-0.65918 l 1.5625,-1.97266 -1.303711,-1.90918 c -0.354819,-0.51757 -0.655926,-0.85692 -0.90332,-1.01806 -0.247397,-0.16113 -0.532227,-0.24658 -0.854493,-0.25635 l 0,-0.18066 3.061524,0 0,0.18066 c -0.26042,0.01 -0.438642,0.0521 -0.534668,0.12695 -0.09603,0.0749 -0.144046,0.15789 -0.144043,0.24903 -3e-6,0.12044 0.07812,0.29623 0.234375,0.52734 l 1.015625,1.51855 1.176758,-1.48925 c 0.136713,-0.17578 0.220535,-0.29622 0.251465,-0.36133 0.03092,-0.0651 0.04638,-0.13183 0.04639,-0.2002 -5e-6,-0.0683 -0.01954,-0.12857 -0.05859,-0.18066 -0.04883,-0.0683 -0.110683,-0.11637 -0.185547,-0.14404 -0.07488,-0.0277 -0.229497,-0.0431 -0.463867,-0.0464 l 0,-0.18066 2.348632,0 0,0.18066 c -0.185553,0.01 -0.33692,0.0391 -0.454101,0.0879 -0.175788,0.0749 -0.33692,0.17579 -0.483399,0.30273 -0.14649,0.12696 -0.353195,0.36134 -0.620117,0.70313 z"/>
      <path
         d="m 52.996811,92.941711 c 0.442704,4e-6 0.778804,-0.07487 1.008301,-0.224609 0.229486,-0.149736 0.382481,-0.332027 0.458984,-0.546875 0.07649,-0.21484 0.126134,-0.572912 0.148926,-1.074219 0.02278,-0.556635 0.147292,-0.97086 0.373535,-1.242675 0.226231,-0.271804 0.598138,-0.407709 1.115723,-0.407715 l 0,0.185547 c -0.185554,0.01303 -0.311693,0.08546 -0.378418,0.217285 -0.06674,0.131842 -0.100105,0.410976 -0.100098,0.837402 -7e-6,0.625005 -0.06593,1.107589 -0.197754,1.447754 -0.131842,0.340173 -0.396328,0.616052 -0.793457,0.827637 -0.397141,0.211591 -0.942388,0.325523 -1.635742,0.341797 l 0,1.547851 c -4e-6,0.38086 0.02197,0.627442 0.06592,0.739746 0.04394,0.112305 0.136714,0.202637 0.27832,0.270996 0.141597,0.06836 0.36051,0.10254 0.656738,0.102539 l 0,0.180664 -2.939453,0 0,-0.180664 c 0.289711,-0.0033 0.505369,-0.03499 0.646973,-0.09521 0.141599,-0.06022 0.236,-0.148112 0.283203,-0.263672 0.0472,-0.11556 0.0708,-0.367024 0.0708,-0.754395 l 0,-1.547851 C 51.35944,93.286774 50.81582,93.174466 50.428453,92.966129 50.041082,92.7578 49.778224,92.485176 49.639878,92.148258 c -0.138347,-0.336909 -0.20752,-0.826004 -0.207519,-1.467285 -10e-7,-0.41015 -0.03093,-0.682774 -0.09277,-0.817871 -0.06185,-0.135085 -0.19043,-0.212396 -0.385742,-0.231933 l 0,-0.185547 c 0.328776,0.0065 0.594075,0.0586 0.795899,0.15625 0.201821,0.09766 0.363768,0.270188 0.485839,0.517578 0.122069,0.247401 0.191242,0.572922 0.20752,0.976562 0.02278,0.498052 0.0708,0.854497 0.144043,1.069336 0.07324,0.214848 0.227049,0.397953 0.461426,0.549317 0.234372,0.15137 0.571286,0.227054 1.010742,0.22705 l 0,-2.128906 c -3e-6,-0.380853 -0.02198,-0.627435 -0.06592,-0.739746 -0.04395,-0.112298 -0.135908,-0.201003 -0.275879,-0.266113 -0.139977,-0.0651 -0.359703,-0.09928 -0.65918,-0.102539 l 0,-0.180664 2.939453,0 0,0.180664 c -0.299484,0.0033 -0.51921,0.03663 -0.659179,0.100097 -0.139979,0.06348 -0.231938,0.152188 -0.275879,0.266114 -0.04395,0.113938 -0.06592,0.361334 -0.06592,0.742187 z"/>
      <path
         d="m 64.893356,81.94371 0.180664,0 c 0.01302,0.231121 0.08138,0.392254 0.205079,0.483399 0.123697,0.09115 0.320637,0.136719 0.59082,0.136719 l 1.333008,0 -0.0098,-0.327149 c -0.51758,-0.104165 -0.989585,-0.392251 -1.416016,-0.864258 -0.426433,-0.472002 -0.639649,-1.067705 -0.639648,-1.787109 -10e-7,-0.797521 0.297037,-1.477859 0.891113,-2.041016 0.594074,-0.563144 1.369626,-0.84472 2.32666,-0.844726 0.92773,6e-6 1.686193,0.266119 2.275391,0.79834 0.589186,0.532232 0.883782,1.213383 0.883789,2.043457 -7e-6,0.673831 -0.183112,1.245933 -0.549316,1.716308 -0.366217,0.47038 -0.861822,0.796714 -1.486817,0.979004 l -0.04883,0.327149 1.357422,0 c 0.309238,0 0.513502,-0.05859 0.612793,-0.175782 0.09928,-0.117186 0.152174,-0.265298 0.158691,-0.444336 l 0.180664,0 0,1.528321 -2.734375,0 0.126954,-1.47461 c 0.839838,-0.26367 1.259759,-1.040036 1.259765,-2.329101 -6e-6,-0.843095 -0.205897,-1.489253 -0.617676,-1.938477 -0.411788,-0.449212 -0.894372,-0.673822 -1.447753,-0.673828 -0.589196,6e-6 -1.076663,0.23845 -1.462403,0.715332 -0.385744,0.476893 -0.578615,1.08643 -0.578613,1.828613 -2e-6,0.537113 0.08626,1.026208 0.258789,1.467285 0.172524,0.441083 0.502927,0.751141 0.991211,0.930176 l 0.09277,1.47461 -2.734375,0 z"/>
      <path transform="translate(1.6032163,-2.771992)"
         d="m 118.05469,155.36052 0.0684,1.44531 -0.17578,0 c -0.10418,-0.46874 -0.26449,-0.76659 -0.48096,-0.89355 -0.21648,-0.12695 -0.6014,-0.19043 -1.15479,-0.19043 l -1.11328,0 0,2.62207 0.26367,0 c 0.81055,0 1.40625,0.0513 1.78711,0.15381 0.38086,0.10254 0.69092,0.29866 0.93018,0.58838 0.23925,0.28971 0.35888,0.63802 0.35889,1.04492 -10e-6,0.49154 -0.1823,0.92285 -0.54688,1.29394 -0.36459,0.3711 -0.99284,0.55664 -1.88476,0.55664 l -2.80274,0 0,-0.18066 c 0.41016,-0.013 0.6722,-0.0781 0.78613,-0.19531 0.11393,-0.11719 0.1709,-0.39388 0.1709,-0.83008 l 0,-4.20899 c 0,-0.33528 -0.0236,-0.56151 -0.0708,-0.67871 -0.0472,-0.11718 -0.12451,-0.20019 -0.23193,-0.24902 -0.10742,-0.0488 -0.30599,-0.0814 -0.59571,-0.0977 l 0,-0.18066 z m -2.85645,6.22559 c 0.28646,0.0456 0.50944,0.0684 0.66895,0.0684 0.40038,1e-5 0.76253,-0.13346 1.08642,-0.40039 0.32389,-0.26692 0.48584,-0.63639 0.48584,-1.10839 0,-0.48828 -0.16927,-0.85042 -0.50781,-1.08643 -0.33854,-0.236 -0.76823,-0.354 -1.28906,-0.354 -0.14649,0 -0.2946,0.013 -0.44434,0.0391 z"/>
      <path transform="translate(0.75865041,3.7932521)"
         d="m 61.449841,141.76042 5.463867,0 0,0.18067 c -0.410163,0.013 -0.672207,0.0781 -0.786133,0.19531 -0.113938,0.11719 -0.170904,0.39388 -0.170899,0.83008 l 0,3.66699 c -5e-6,0.70964 0.04068,1.14827 0.122071,1.31592 0.08137,0.16764 0.345046,0.25146 0.791015,0.25146 l 0,2.08496 -0.166015,0 c -0.09766,-0.48177 -0.254726,-0.86995 -0.471192,-1.16455 -0.216477,-0.2946 -0.462245,-0.49154 -0.737304,-0.59082 -0.27507,-0.0993 -0.60466,-0.14892 -0.98877,-0.14892 l -1.689453,0 c -0.738934,0 -1.281739,0.20019 -1.628418,0.60058 -0.34668,0.40039 -0.5542,0.83496 -0.622559,1.30371 l -0.166015,0 0,-2.08496 c 0.524088,-0.0456 0.95052,-0.3597 1.279297,-0.94238 0.328774,-0.58268 0.556638,-1.29801 0.683593,-2.146 0.126951,-0.84798 0.190428,-1.54378 0.19043,-2.0874 -2e-6,-0.32551 -0.04069,-0.56477 -0.12207,-0.71777 -0.08138,-0.15299 -0.178225,-0.24902 -0.290527,-0.28809 -0.112307,-0.0391 -0.342613,-0.0651 -0.690918,-0.0781 z m 1.591796,0.36133 c -0.08138,1.93034 -0.236005,3.28451 -0.463867,4.0625 -0.227866,0.778 -0.533856,1.38997 -0.917969,1.83594 l 2.451172,0 c 0.436194,0 0.697424,-0.0383 0.783692,-0.11475 0.08626,-0.0765 0.12939,-0.3247 0.129394,-0.74463 l 0,-5.03906 z"/>
      <path
         d="m 94.672226,136.55807 0,2.61719 1.455078,0 c 0.3776,1e-5 0.629879,-0.057 0.756836,-0.1709 0.169266,-0.14973 0.263667,-0.4134 0.283203,-0.79101 l 0.180664,0 0,2.30469 -0.180664,0 c -0.04558,-0.32227 -0.09115,-0.52897 -0.136719,-0.62012 -0.0586,-0.11393 -0.154626,-0.20345 -0.288086,-0.26856 -0.133467,-0.0651 -0.338545,-0.0976 -0.615234,-0.0976 l -1.455078,0 0,2.18261 c -2e-6,0.29297 0.01302,0.4712 0.03906,0.53467 0.02604,0.0635 0.07161,0.11394 0.136719,0.15137 0.0651,0.0374 0.1888,0.0562 0.371094,0.0562 l 1.123047,0 c 0.374345,0 0.646154,-0.026 0.81543,-0.0781 0.169266,-0.0521 0.332026,-0.15462 0.488281,-0.30762 0.201817,-0.20182 0.408523,-0.50618 0.620117,-0.91309 l 0.195312,0 -0.571289,1.66016 -5.102539,0 0,-0.18066 0.234375,0 c 0.15625,0 0.304362,-0.0374 0.444336,-0.11231 0.104166,-0.0521 0.174967,-0.13021 0.212403,-0.23437 0.03743,-0.10417 0.05615,-0.31739 0.05615,-0.63965 l 0,-4.30176 c -1e-6,-0.41992 -0.04232,-0.6787 -0.126953,-0.77637 -0.117189,-0.1302 -0.312501,-0.1953 -0.585938,-0.19531 l -0.234375,0 0,-0.18066 5.102539,0 0.07324,1.45019 -0.19043,0 c -0.06837,-0.3483 -0.144048,-0.58756 -0.227051,-0.71777 -0.08301,-0.1302 -0.205897,-0.22949 -0.368652,-0.29785 -0.130213,-0.0488 -0.359705,-0.0732 -0.688477,-0.0733 z m 1.845703,-2.08496 c 0.14648,1e-5 0.270992,0.0521 0.373535,0.15625 0.102535,0.10418 0.153804,0.2295 0.153809,0.37598 -5e-6,0.14649 -0.05127,0.271 -0.153809,0.37354 -0.102543,0.10254 -0.227055,0.15381 -0.373535,0.1538 -0.146488,1e-5 -0.271813,-0.0513 -0.375976,-0.1538 -0.104171,-0.10254 -0.156254,-0.22705 -0.15625,-0.37354 -4e-6,-0.14648 0.05208,-0.2718 0.15625,-0.37598 0.104163,-0.10415 0.229488,-0.15624 0.375976,-0.15625 z m -1.723633,0 c 0.149737,1e-5 0.275877,0.0521 0.378418,0.15625 0.102537,0.10418 0.153806,0.2295 0.153809,0.37598 -3e-6,0.14649 -0.05209,0.271 -0.15625,0.37354 -0.104169,0.10254 -0.227867,0.15381 -0.371094,0.1538 -0.146486,1e-5 -0.271812,-0.0513 -0.375976,-0.1538 -0.104169,-0.10254 -0.156252,-0.22705 -0.15625,-0.37354 -2e-6,-0.14648 0.05127,-0.2718 0.153808,-0.37598 0.102537,-0.10415 0.227049,-0.15624 0.373535,-0.15625 z"/>
      <path
         d="m 82.206764,173.10893 0,-0.18066 c 0.413408,-0.013 0.67708,-0.0781 0.791016,-0.19531 0.113928,-0.11719 0.170894,-0.39388 0.170898,-0.83008 l 0,-2.02637 -0.136718,-0.005 c -0.120447,0 -0.219731,0.0228 -0.297852,0.0684 -0.07813,0.0456 -0.140791,0.10579 -0.187988,0.18066 -0.0472,0.0749 -0.262862,0.46713 -0.646973,1.17676 l -0.97168,1.81152 -1.68457,0 0,-0.18066 c 0.48177,-0.0749 0.838215,-0.26205 1.069336,-0.56153 0.231118,-0.29947 0.623371,-0.93912 1.176758,-1.91894 0.20182,-0.35807 0.39876,-0.60058 0.59082,-0.72754 -0.195315,-0.14323 -0.343427,-0.31168 -0.444336,-0.50537 -0.100914,-0.19368 -0.234377,-0.56884 -0.40039,-1.12549 -0.133466,-0.43945 -0.233564,-0.71207 -0.300293,-0.81787 -0.06673,-0.10579 -0.157066,-0.15869 -0.270997,-0.15869 -0.107423,0 -0.247397,0.0488 -0.419921,0.14648 -0.166017,0.0944 -0.307618,0.14161 -0.424805,0.1416 -0.136719,1e-5 -0.249838,-0.0407 -0.339356,-0.12207 -0.08952,-0.0814 -0.134277,-0.18228 -0.134277,-0.30273 0,-0.14648 0.06836,-0.2775 0.205078,-0.39307 0.136718,-0.11555 0.338541,-0.17333 0.605469,-0.17334 0.260415,1e-5 0.493976,0.0667 0.700684,0.2002 0.206703,0.13347 0.354001,0.28972 0.441894,0.46875 0.08789,0.17904 0.211586,0.52572 0.371094,1.04004 0.143226,0.4655 0.25309,0.778 0.32959,0.9375 0.07649,0.15951 0.185544,0.28076 0.327148,0.36377 0.141598,0.083 0.323076,0.12451 0.544434,0.12451 0.07487,0 0.174149,-0.01 0.297851,-0.0293 l 0,-1.82129 c -4e-6,-0.43619 -0.05697,-0.71288 -0.170898,-0.83007 -0.113936,-0.11719 -0.377608,-0.18229 -0.791016,-0.19532 l 0,-0.18066 2.851563,0 0,0.18066 c -0.410162,0.013 -0.671392,0.0781 -0.783692,0.19532 -0.112309,0.11719 -0.168462,0.39388 -0.168457,0.83007 l 0,1.82129 c 0.09114,0.0195 0.175776,0.0293 0.253907,0.0293 0.244135,0 0.436192,-0.0415 0.576171,-0.12451 0.139968,-0.083 0.248204,-0.20182 0.324707,-0.35645 0.07649,-0.15462 0.187982,-0.46956 0.334473,-0.94482 0.156243,-0.51106 0.278314,-0.8553 0.366211,-1.03272 0.08788,-0.1774 0.235182,-0.33446 0.441895,-0.47119 0.206698,-0.13671 0.441886,-0.20507 0.705566,-0.20508 0.253898,1e-5 0.452466,0.0554 0.595703,0.16602 0.143221,0.11068 0.214835,0.24415 0.214844,0.40039 -9e-6,0.12045 -0.04395,0.22136 -0.131836,0.30273 -0.0879,0.0814 -0.201831,0.12208 -0.341797,0.12207 -0.110685,1e-5 -0.252287,-0.0472 -0.424805,-0.1416 -0.175789,-0.0977 -0.319018,-0.14648 -0.429687,-0.14648 -0.107429,0 -0.19532,0.0562 -0.263672,0.16846 -0.06837,0.11231 -0.16765,0.38167 -0.297852,0.8081 -0.169277,0.5599 -0.303554,0.93588 -0.402832,1.12793 -0.09929,0.19206 -0.246588,0.3597 -0.441894,0.50293 0.159499,0.11719 0.292148,0.25391 0.397949,0.41016 0.105788,0.15625 0.349114,0.56803 0.729981,1.23535 0.36132,0.63802 0.643709,1.04085 0.847168,1.20849 0.203442,0.16765 0.490714,0.28565 0.861816,0.35401 l 0,0.18066 -1.68457,0 c -0.03907,-0.0846 -0.289721,-0.55501 -0.751954,-1.41113 l -0.761718,-1.41113 c -0.04558,-0.0879 -0.112311,-0.17904 -0.200196,-0.27344 -0.0879,-0.0944 -0.218104,-0.1416 -0.390625,-0.1416 -0.03581,0 -0.07813,0.002 -0.126953,0.005 l 0,2.02637 c -5e-6,0.4362 0.05615,0.71289 0.168457,0.83008 0.1123,0.11718 0.37353,0.18229 0.783692,0.19531 l 0,0.18066 z"/>
      <path
         d="m 77.489395,144.77901 0,-1.92383 0.170899,0 c 0.05208,0.21485 0.172525,0.32227 0.361328,0.32226 0.07161,1e-5 0.224608,-0.0439 0.458984,-0.13183 0.367837,-0.13346 0.753579,-0.20019 1.157227,-0.2002 0.546871,1e-5 0.986324,0.1644 1.318359,0.49317 0.332027,0.32878 0.498042,0.71289 0.498047,1.15234 -5e-6,0.4004 -0.12533,0.74301 -0.375977,1.02783 -0.250655,0.28484 -0.582685,0.49398 -0.996093,0.62744 0.449215,0.0814 0.81217,0.28565 1.088867,0.6128 0.276688,0.32715 0.415034,0.71208 0.415039,1.15478 -5e-6,0.54688 -0.211593,0.99284 -0.634766,1.33789 -0.42318,0.34506 -0.948896,0.51758 -1.577148,0.51758 -0.934246,0 -1.65853,-0.44271 -2.172852,-1.32812 l 0.166016,-0.10743 c 0.166015,0.27019 0.4069,0.50293 0.722656,0.69825 0.315754,0.19531 0.655923,0.29297 1.020508,0.29297 0.43294,0 0.76904,-0.14405 1.008301,-0.43213 0.239254,-0.28809 0.358883,-0.64046 0.358886,-1.05713 -3e-6,-0.42969 -0.15137,-0.79264 -0.454101,-1.08887 -0.302737,-0.29622 -0.804039,-0.44433 -1.503906,-0.44434 l 0,-0.32226 c 0.494789,0 0.86751,-0.0521 1.118164,-0.15625 0.250648,-0.10416 0.454098,-0.27343 0.610351,-0.50781 0.156247,-0.23437 0.234372,-0.50618 0.234375,-0.81543 -3e-6,-0.35807 -0.109053,-0.65104 -0.327148,-0.87891 -0.218102,-0.22786 -0.514326,-0.34179 -0.888672,-0.3418 -0.465497,1e-5 -0.829266,0.13754 -1.091309,0.4126 -0.262045,0.27507 -0.433757,0.63721 -0.515136,1.08643 z"/>
      <path transform="translate(-2.0632209,0.37932521)"
         d="m 101.6833,147.18146 c 0,-0.39713 -0.0643,-0.6486 -0.19287,-0.7544 -0.12858,-0.10578 -0.38819,-0.15868 -0.77881,-0.15869 l 0,-0.18066 2.86622,0 0,0.18066 c -0.41017,0.013 -0.67221,0.0781 -0.78614,0.19531 -0.11394,0.1172 -0.1709,0.39389 -0.1709,0.83008 l 0,4.20899 c 0,0.4362 0.057,0.71289 0.1709,0.83007 0.11393,0.11719 0.37597,0.1823 0.78614,0.19532 l 0,0.18066 -2.86622,0 0,-0.18066 c 0.41992,-0.013 0.68685,-0.0789 0.80079,-0.19776 0.11392,-0.11881 0.17089,-0.39469 0.17089,-0.82763 l 0,-3.79883 -3.071285,3.93555 c 0.0033,0.2832 0.02197,0.47281 0.05615,0.56884 0.03418,0.096 0.11393,0.17172 0.239258,0.22705 0.125323,0.0553 0.347491,0.0863 0.666504,0.0928 l 0,0.18066 -2.856445,0 0,-0.18066 c 0.410155,-0.013 0.672199,-0.0781 0.786132,-0.19532 0.113932,-0.11718 0.170898,-0.39387 0.170899,-0.83007 l 0,-4.20899 c -1e-6,-0.43619 -0.05697,-0.71288 -0.170899,-0.83008 -0.113933,-0.11718 -0.375977,-0.18228 -0.786132,-0.19531 l 0,-0.18066 2.856445,0 0,0.18066 c -0.413414,0.013 -0.677086,0.0781 -0.791016,0.19531 -0.113934,0.1172 -0.1709,0.39389 -0.170898,0.83008 l 0,3.81348 z"/>
      <path transform="translate(-2.0632209,0.37932521)"
         d="m 110.445,143.89532 c 0.10091,1e-5 0.18798,0.0431 0.26123,0.1294 0.0732,0.0863 0.10986,0.188 0.10986,0.30518 0,0.28972 -0.14974,0.53874 -0.44922,0.74707 -0.29948,0.20834 -0.77474,0.3125 -1.42578,0.3125 -0.6543,0 -1.13037,-0.10416 -1.42822,-0.3125 -0.29785,-0.20833 -0.44678,-0.45735 -0.44678,-0.74707 0,-0.11393 0.0358,-0.21484 0.10743,-0.30274 0.0716,-0.0879 0.16113,-0.13183 0.26855,-0.13184 0.10742,1e-5 0.19938,0.0415 0.27588,0.12452 0.0765,0.083 0.18473,0.26612 0.32471,0.54931 0.19531,0.40366 0.49478,0.60548 0.89843,0.60547 0.40039,1e-5 0.69987,-0.20181 0.89844,-0.60547 0.13672,-0.28645 0.24251,-0.47037 0.31738,-0.55175 0.0749,-0.0814 0.1709,-0.12207 0.28809,-0.12208 z m 0.0293,3.28614 c -1e-5,-0.39713 -0.0643,-0.6486 -0.19287,-0.7544 -0.12859,-0.10578 -0.38819,-0.15868 -0.77881,-0.15869 l 0,-0.18066 2.86621,0 0,0.18066 c -0.41017,0.013 -0.67221,0.0781 -0.78613,0.19531 -0.11394,0.1172 -0.17091,0.39389 -0.1709,0.83008 l 0,4.20899 c -1e-5,0.4362 0.057,0.71289 0.1709,0.83007 0.11392,0.11719 0.37596,0.1823 0.78613,0.19532 l 0,0.18066 -2.86621,0 0,-0.18066 c 0.41991,-0.013 0.68684,-0.0789 0.80078,-0.19776 0.11393,-0.11881 0.17089,-0.39469 0.1709,-0.82763 l 0,-3.79883 -3.07129,3.93555 c 0.003,0.2832 0.022,0.47281 0.0562,0.56884 0.0342,0.096 0.11393,0.17172 0.23926,0.22705 0.12532,0.0553 0.34749,0.0863 0.6665,0.0928 l 0,0.18066 -2.85644,0 0,-0.18066 c 0.41015,-0.013 0.6722,-0.0781 0.78613,-0.19532 0.11393,-0.11718 0.1709,-0.39387 0.1709,-0.83007 l 0,-4.20899 c 0,-0.43619 -0.057,-0.71288 -0.1709,-0.83008 -0.11393,-0.11718 -0.37598,-0.18228 -0.78613,-0.19531 l 0,-0.18066 2.85644,0 0,0.18066 c -0.41341,0.013 -0.67708,0.0781 -0.79101,0.19531 -0.11394,0.1172 -0.1709,0.39389 -0.1709,0.83008 l 0,3.81348 z"/>
      <path
         d="m 57.898243,136.24899 -2.050781,0 0,1.85547 c -3e-6,1.87175 -0.161136,3.08675 -0.483399,3.64502 -0.322267,0.55827 -0.766603,0.8374 -1.333008,0.8374 -0.240886,0 -0.426432,-0.0594 -0.55664,-0.17822 -0.130209,-0.11881 -0.195313,-0.25635 -0.195313,-0.4126 0,-0.12044 0.04232,-0.22461 0.126953,-0.3125 0.08464,-0.0879 0.187175,-0.13183 0.307618,-0.13183 0.10091,0 0.21647,0.0488 0.346679,0.14648 0.146484,0.10742 0.278319,0.16114 0.395508,0.16113 0.283202,1e-5 0.514321,-0.23518 0.69336,-0.70556 0.179034,-0.47038 0.268552,-1.36149 0.268554,-2.67334 l 0,-1.38672 c -2e-6,-0.43619 -0.05697,-0.71289 -0.170898,-0.83008 -0.113934,-0.11718 -0.375978,-0.18228 -0.786133,-0.19531 l 0,-0.18067 5.327148,0 0,0.18067 c -0.410162,0.013 -0.672206,0.0781 -0.786132,0.19531 -0.113938,0.11719 -0.170905,0.39389 -0.170899,0.83008 l 0,4.20898 c -6e-6,0.4362 0.05696,0.71289 0.170899,0.83008 0.113926,0.11719 0.37597,0.18229 0.786132,0.19531 l 0,0.18067 -2.846679,0 0,-0.18067 c 0.410152,-0.013 0.672196,-0.0781 0.786133,-0.19531 0.113927,-0.11719 0.170893,-0.39388 0.170898,-0.83008 z"/>
      <path
         d="m 133.05762,111.93615 0.15137,2.25098 -0.15137,0 c -0.20182,-0.67383 -0.48991,-1.15885 -0.86425,-1.45508 -0.37436,-0.29622 -0.82358,-0.44433 -1.34766,-0.44434 -0.43946,10e-6 -0.83659,0.1115 -1.19141,0.33447 -0.35482,0.22299 -0.63395,0.57862 -0.8374,1.0669 -0.20345,0.48829 -0.30518,1.09538 -0.30517,1.82129 -1e-5,0.59896 0.096,1.11816 0.28808,1.55762 0.19206,0.43945 0.48096,0.77636 0.8667,1.01074 0.38574,0.23437 0.82601,0.35156 1.3208,0.35156 0.42969,0 0.80892,-0.092 1.1377,-0.27588 0.32877,-0.18392 0.6901,-0.54931 1.08398,-1.09619 l 0.15137,0.0977 c -0.33204,0.58919 -0.71941,1.0205 -1.16211,1.29394 -0.44271,0.27344 -0.96843,0.41016 -1.57715,0.41016 -1.09701,0 -1.94661,-0.4069 -2.54883,-1.22071 -0.44922,-0.60546 -0.67383,-1.31835 -0.67382,-2.13867 -1e-5,-0.6608 0.14811,-1.2679 0.44433,-1.82129 0.29622,-0.55338 0.70394,-0.98225 1.22315,-1.28662 0.5192,-0.30435 1.08642,-0.45653 1.70166,-0.45654 0.47851,1e-5 0.95051,0.11719 1.41601,0.35156 0.13671,0.0716 0.23437,0.10743 0.29297,0.10742 0.0879,1e-5 0.16438,-0.0309 0.22949,-0.0928 0.0846,-0.0879 0.14485,-0.20995 0.18067,-0.36621 z"/>
      <path
         d="m 103.7724,163.34639 0,2.08496 -0.16602,0 c -0.0911,-0.5013 -0.30355,-0.94401 -0.6372,-1.32812 -0.33367,-0.38412 -0.85043,-0.57618 -1.5503,-0.57618 l -4.492183,0 0,-0.18066 c 0.410155,-0.013 0.672199,-0.0781 0.786133,-0.19531 0.113931,-0.11719 0.170897,-0.39388 0.170898,-0.83008 l 0,-4.20899 c -1e-6,-0.43619 -0.05697,-0.71288 -0.170898,-0.83007 -0.113934,-0.11718 -0.375978,-0.18229 -0.786133,-0.19532 l 0,-0.18066 2.851562,0 0,0.18066 c -0.410159,0.013 -0.672203,0.0781 -0.786133,0.19532 -0.113934,0.11719 -0.1709,0.39388 -0.170898,0.83007 l 0,4.41407 c -2e-6,0.30924 0.0179,0.49316 0.05371,0.55176 0.0358,0.0586 0.232745,0.0879 0.59082,0.0879 l 1.704102,0 c 0.41666,0 0.64127,-0.0317 0.67383,-0.0952 0.0326,-0.0635 0.0488,-0.27588 0.0488,-0.63721 l 0,-4.32129 c -10e-6,-0.43619 -0.057,-0.71288 -0.1709,-0.83007 -0.11394,-0.11718 -0.37924,-0.18229 -0.7959,-0.19532 l 0,-0.18066 2.86133,0 0,0.18066 c -0.41016,0.013 -0.67221,0.0781 -0.78613,0.19532 -0.11394,0.11719 -0.17091,0.39388 -0.1709,0.83007 l 0,4.22364 c -10e-6,0.45247 0.0529,0.73405 0.15869,0.84472 0.10579,0.11068 0.36702,0.16602 0.78369,0.16602 z"/>
      <path transform="translate(-2.2030041,-0.73433469)"
         d="m 99.315308,173.11052 0,-1.99219 c -5e-6,-0.37434 -0.02279,-0.61441 -0.06836,-0.72021 -0.04558,-0.10579 -0.13835,-0.18636 -0.27832,-0.2417 -0.139978,-0.0553 -0.343428,-0.0846 -0.610352,-0.0879 l 0,-0.18067 2.851564,0 0,0.18067 c -0.27344,0.003 -0.47852,0.0326 -0.61524,0.0879 -0.13672,0.0553 -0.22787,0.13916 -0.27343,0.25146 -0.0456,0.11231 -0.0684,0.34913 -0.0684,0.71045 l 0,4.16016 c -1e-5,0.38086 0.0269,0.625 0.0806,0.73242 0.0537,0.10742 0.14486,0.18473 0.27344,0.23193 0.12858,0.0472 0.32959,0.0757 0.60303,0.0855 l 0,0.18067 -2.851564,0 0,-0.18067 c 0.286455,-0.007 0.49316,-0.0366 0.620118,-0.0903 0.126948,-0.0537 0.214839,-0.13265 0.263671,-0.23682 0.04882,-0.10416 0.07324,-0.34505 0.07324,-0.72265 l 0,-1.77735 c -0.820316,0.36785 -1.489261,0.55176 -2.006836,0.55176 -0.387372,0 -0.702313,-0.0765 -0.944825,-0.22949 -0.242514,-0.15299 -0.393881,-0.31982 -0.454101,-0.50049 -0.06022,-0.18066 -0.09033,-0.54117 -0.09033,-1.08154 l 0,-1.12305 c -1e-6,-0.36783 -0.0236,-0.60709 -0.0708,-0.71777 -0.0472,-0.11067 -0.141602,-0.19287 -0.283203,-0.24658 -0.141602,-0.0537 -0.342611,-0.0822 -0.603027,-0.0854 l 0,-0.18067 2.861328,0 0,0.18067 c -0.276696,0 -0.488284,0.0309 -0.634766,0.0928 -0.146486,0.0619 -0.238446,0.15382 -0.275879,0.27588 -0.03744,0.12208 -0.05615,0.34913 -0.05615,0.68115 l 0,0.91797 c -2e-6,0.42969 0.02441,0.73487 0.07324,0.91553 0.04883,0.18067 0.14811,0.31901 0.297852,0.41504 0.149737,0.096 0.340166,0.14404 0.571289,0.14404 0.488278,0 1.027014,-0.13346 1.616211,-0.40039 z"/>
      <path
         d="m 80.928162,163.34639 0,0.18066 -9.53125,0 0,-0.18066 c 0.01627,-0.003 0.0765,-0.01 0.180664,-0.0195 0.25065,-0.0195 0.425617,-0.0814 0.524902,-0.18555 0.09928,-0.10416 0.148925,-0.37923 0.148926,-0.82519 l 0,-4.20411 c -10e-7,-0.42642 -0.0529,-0.69905 -0.158692,-0.81787 -0.105795,-0.11881 -0.337728,-0.18798 -0.6958,-0.20752 l 0,-0.18066 2.539062,0 0,0.18066 c -0.319013,0.0326 -0.523277,0.10987 -0.612793,0.23194 -0.08952,0.12207 -0.134279,0.38656 -0.134277,0.79345 l 0,4.20411 c -2e-6,0.33528 0.01221,0.54769 0.03662,0.6372 0.02441,0.0895 0.0651,0.1473 0.12207,0.17334 0.05696,0.0261 0.187986,0.0391 0.393067,0.0391 l 1.289062,0 c 0.325517,0 0.517574,-0.026 0.576172,-0.0781 0.05859,-0.0521 0.08789,-0.30924 0.08789,-0.77148 l 0,-4.20411 c -5e-6,-0.39712 -0.04395,-0.65917 -0.131836,-0.78613 -0.08789,-0.12694 -0.294601,-0.2067 -0.620118,-0.23926 l 0,-0.18066 2.436524,0 0,0.18066 c -0.322272,0.0326 -0.52735,0.1115 -0.615234,0.23682 -0.0879,0.12533 -0.131842,0.38819 -0.131836,0.78857 l 0,4.20411 c -6e-6,0.42968 0.02766,0.67871 0.08301,0.74707 0.05533,0.0684 0.265294,0.10254 0.629883,0.10254 l 1.313477,0 c 0.179029,0 0.296216,-0.0155 0.351562,-0.0464 0.05533,-0.0309 0.09032,-0.0773 0.104981,-0.13916 0.01464,-0.0618 0.02196,-0.2832 0.02197,-0.66406 l 0,-4.20411 c -8e-6,-0.40364 -0.04477,-0.66731 -0.134277,-0.79101 -0.08953,-0.12369 -0.295418,-0.20182 -0.617676,-0.23438 l 0,-0.18066 2.529297,0 0,0.18066 c -0.240895,0.007 -0.422372,0.0423 -0.544433,0.10743 -0.12208,0.0651 -0.201832,0.15707 -0.239258,0.27587 -0.03744,0.11883 -0.05616,0.33286 -0.05615,0.64209 l 0,4.20411 c -9e-6,0.34179 0.01464,0.55989 0.04395,0.65429 0.02929,0.0944 0.09276,0.17985 0.190429,0.25635 0.09765,0.0765 0.304353,0.11637 0.620118,0.11963 z"/>
      <path
         d="m 84.160118,163.52705 0,-0.18066 c 0.01628,-0.003 0.0765,-0.01 0.180664,-0.0195 0.25065,-0.0195 0.425618,-0.0814 0.524903,-0.18555 0.09928,-0.10416 0.148924,-0.37923 0.148925,-0.82519 l 0,-4.20411 c -1e-6,-0.42642 -0.0529,-0.69905 -0.158691,-0.81787 -0.105795,-0.11881 -0.337729,-0.18798 -0.695801,-0.20752 l 0,-0.18066 2.539063,0 0,0.18066 c -0.319013,0.0326 -0.523277,0.10987 -0.612793,0.23194 -0.08952,0.12207 -0.13428,0.38656 -0.134278,0.79345 l 0,4.20411 c -2e-6,0.33528 0.0122,0.54769 0.03662,0.6372 0.02441,0.0895 0.0651,0.1473 0.122071,0.17334 0.05696,0.0261 0.187986,0.0391 0.393066,0.0391 l 1.289063,0 c 0.325516,0 0.517573,-0.026 0.576171,-0.0781 0.05859,-0.0521 0.08789,-0.30924 0.08789,-0.77148 l 0,-4.20411 c -4e-6,-0.39712 -0.04395,-0.65917 -0.131836,-0.78613 -0.0879,-0.12694 -0.2946,-0.2067 -0.620117,-0.23926 l 0,-0.18066 2.436523,0 0,0.18066 c -0.322271,0.0326 -0.527349,0.1115 -0.615234,0.23682 -0.0879,0.12533 -0.131841,0.38819 -0.131836,0.78857 l 0,4.20411 c -5e-6,0.42968 0.02766,0.67871 0.08301,0.74707 0.05533,0.0684 0.265294,0.10254 0.629883,0.10254 l 1.313476,0 c 0.179029,0 0.296216,-0.0155 0.351563,-0.0464 0.05533,-0.0309 0.09032,-0.0773 0.10498,-0.13916 0.01464,-0.0618 0.02196,-0.2832 0.02197,-0.66406 l 0,-4.20411 c -8e-6,-0.40364 -0.04477,-0.66731 -0.134277,-0.79101 -0.08953,-0.12369 -0.295418,-0.20182 -0.617676,-0.23438 l 0,-0.18066 2.529297,0 0,0.18066 c -0.240895,0.007 -0.422373,0.0423 -0.544434,0.10743 -0.122079,0.0651 -0.201832,0.15707 -0.239258,0.27587 -0.03744,0.11883 -0.05616,0.33286 -0.05615,0.64209 l 0,4.20411 c -9e-6,0.34179 0.01464,0.55989 0.04394,0.65429 0.02929,0.0944 0.09276,0.17985 0.19043,0.25635 0.09765,0.0765 0.304352,0.11637 0.620117,0.11963 l 0,2.08496 -0.166016,0 c -0.136728,-0.54362 -0.309254,-0.94808 -0.517578,-1.21338 -0.208342,-0.2653 -0.452482,-0.44678 -0.732422,-0.54443 -0.279956,-0.0977 -0.690111,-0.14649 -1.230468,-0.14649 z"/>
      <path
         d="m 111.57113,169.78032 0.26367,0 c 0.81054,0 1.40625,0.0513 1.78711,0.15381 0.38085,0.10254 0.69091,0.29867 0.93018,0.58838 0.23925,0.28971 0.35888,0.63802 0.35888,1.04492 0,0.49154 -0.1823,0.92285 -0.54687,1.29394 -0.36459,0.3711 -0.99122,0.55664 -1.87989,0.55664 l -2.80761,0 0,-0.18066 c 0.41015,-0.013 0.6722,-0.0781 0.78613,-0.19531 0.11393,-0.11719 0.1709,-0.39388 0.1709,-0.83008 l 0,-5.05371 -0.41992,0 c -0.44922,1e-5 -0.7601,0.026 -0.93262,0.0781 -0.17253,0.0521 -0.31413,0.15219 -0.4248,0.3003 -0.11068,0.14811 -0.1823,0.38981 -0.21485,0.72509 l -0.19531,0 0.0732,-1.46484 4.00879,0 0,0.18066 c -0.41016,0.013 -0.6722,0.0781 -0.78613,0.19532 -0.11394,0.11719 -0.1709,0.39388 -0.1709,0.83008 z m 0,3.24219 c 0.27343,0.0456 0.49641,0.0684 0.66894,0.0684 0.40039,0 0.76253,-0.13347 1.08643,-0.40039 0.32389,-0.26693 0.48583,-0.6364 0.48584,-1.1084 -1e-5,-0.48828 -0.16928,-0.85042 -0.50781,-1.08643 -0.33855,-0.236 -0.76824,-0.354 -1.28907,-0.354 -0.14648,0 -0.2946,0.013 -0.44433,0.0391 z"/>
      <path transform="translate(1.7134476,2.4477823)"
         d="m 126.33048,155.87117 0.26367,0 c 0.81055,0 1.40625,0.0513 1.78711,0.15381 0.38086,0.10254 0.69092,0.29867 0.93018,0.58838 0.23925,0.28971 0.35888,0.63802 0.35889,1.04492 -1e-5,0.49154 -0.1823,0.92285 -0.54688,1.29394 -0.36459,0.3711 -0.99284,0.55665 -1.88476,0.55665 l -2.80274,0 0,-0.18067 c 0.41016,-0.013 0.6722,-0.0781 0.78613,-0.19531 0.11394,-0.11719 0.1709,-0.39388 0.1709,-0.83008 l 0,-4.20898 c 0,-0.4362 -0.057,-0.71289 -0.1709,-0.83008 -0.11393,-0.11718 -0.37597,-0.18229 -0.78613,-0.19531 l 0,-0.18067 2.85156,0 0,0.18067 c -0.41016,0.013 -0.6722,0.0781 -0.78613,0.19531 -0.11393,0.11719 -0.1709,0.39388 -0.1709,0.83008 z m 0,3.24219 c 0.28646,0.0456 0.50944,0.0684 0.66895,0.0684 0.40039,0 0.76253,-0.13347 1.08642,-0.40039 0.32389,-0.26693 0.48584,-0.6364 0.48584,-1.1084 0,-0.48828 -0.16927,-0.85042 -0.50781,-1.08643 -0.33854,-0.236 -0.76823,-0.354 -1.28906,-0.354 -0.14649,0 -0.2946,0.013 -0.44434,0.0391 z m 6.45508,0.21484 0,0.18067 -2.83203,0 0,-0.18067 0.19531,0 c 0.18554,0 0.33854,-0.0326 0.45899,-0.0977 0.12043,-0.0651 0.19937,-0.14974 0.23681,-0.25391 0.0374,-0.10417 0.0562,-0.31738 0.0562,-0.63965 l 0,-4.27734 c 0,-0.31575 -0.0204,-0.5306 -0.061,-0.64453 -0.0407,-0.11393 -0.12045,-0.20019 -0.23926,-0.25879 -0.11882,-0.0586 -0.28402,-0.0879 -0.4956,-0.0879 l -0.15137,0 0,-0.18067 2.83203,0 0,0.18067 -0.14648,0 c -0.20509,0 -0.36785,0.0293 -0.48829,0.0879 -0.12045,0.0586 -0.20264,0.14405 -0.24658,0.25634 -0.0439,0.11231 -0.0659,0.32797 -0.0659,0.64698 l 0,4.27734 c 0,0.39388 0.0505,0.65755 0.15137,0.79102 0.10091,0.13346 0.31738,0.20019 0.64942,0.20019 z"/>
      <path
         d="m 120.28917,169.78032 0.26367,0 c 0.81054,0 1.40625,0.0513 1.78711,0.15381 0.38086,0.10254 0.69091,0.29867 0.93018,0.58838 0.23925,0.28971 0.35888,0.63802 0.35888,1.04492 0,0.49154 -0.18229,0.92285 -0.54687,1.29394 -0.36459,0.3711 -0.99284,0.55664 -1.88477,0.55664 l -2.80273,0 0,-0.18066 c 0.41015,-0.013 0.6722,-0.0781 0.78613,-0.19531 0.11393,-0.11719 0.1709,-0.39388 0.1709,-0.83008 l 0,-4.20898 c 0,-0.4362 -0.057,-0.71289 -0.1709,-0.83008 -0.11393,-0.11718 -0.37598,-0.18229 -0.78613,-0.19532 l 0,-0.18066 2.85156,0 0,0.18066 c -0.41016,0.013 -0.6722,0.0781 -0.78613,0.19532 -0.11394,0.11719 -0.1709,0.39388 -0.1709,0.83008 z m 0,3.24219 c 0.28646,0.0456 0.50944,0.0684 0.66894,0.0684 0.40039,0 0.76253,-0.13347 1.08643,-0.40039 0.32389,-0.26693 0.48584,-0.6364 0.48584,-1.1084 0,-0.48828 -0.16927,-0.85042 -0.50781,-1.08643 -0.33855,-0.236 -0.76823,-0.354 -1.28906,-0.354 -0.14649,0 -0.2946,0.013 -0.44434,0.0391 z"/>
      <path
         d="m 102.43906,138.27194 0.18067,0 c 0.0879,-0.56965 0.35481,-1.0262 0.80078,-1.36963 0.44596,-0.34341 0.90169,-0.51513 1.36719,-0.51513 0.53059,0 1.01236,0.22705 1.44531,0.68115 0.43294,0.45411 0.68359,1.1792 0.75195,2.17529 l -2.57812,0 0,0.36133 2.57812,0 c 0,0.625 -0.11393,1.16699 -0.34179,1.62598 -0.22787,0.45898 -0.50945,0.80078 -0.84473,1.02539 -0.33529,0.22461 -0.73568,0.33691 -1.20117,0.33691 -0.91797,0 -1.68457,-0.41829 -2.29981,-1.25488 l -0.13183,0.10254 c 0.62825,1.01888 1.50227,1.52832 2.62207,1.52832 0.97656,0 1.77489,-0.33285 2.39502,-0.99854 0.62011,-0.66569 0.93017,-1.4803 0.93017,-2.44385 0,-0.69986 -0.16602,-1.31103 -0.49804,-1.83349 -0.33204,-0.52246 -0.73487,-0.92773 -1.2085,-1.21582 -0.47364,-0.28808 -1.01482,-0.43212 -1.62354,-0.43213 -0.42318,1e-5 -0.89518,0.0944 -1.41601,0.2832 -0.13672,0.0488 -0.2295,0.0733 -0.27832,0.0732 -0.11719,1e-5 -0.24089,-0.11555 -0.3711,-0.34667 l -0.16601,0 z"/>
      <path transform="translate(0,-1.2238912)"
         d="m 125.52427,145.81609 -1.36231,0 0,2.01171 c 0,0.39389 0.0505,0.65756 0.15137,0.79102 0.10091,0.13346 0.31738,0.2002 0.64942,0.2002 l 0.15136,0 0,0.18066 -2.83691,0 0,-0.18066 0.20019,0 c 0.1823,0 0.33366,-0.0326 0.45411,-0.0977 0.12044,-0.0651 0.19938,-0.14974 0.23681,-0.25391 0.0374,-0.10416 0.0561,-0.31738 0.0561,-0.63965 l 0,-4.27734 c 0,-0.31575 -0.0203,-0.53059 -0.061,-0.64453 -0.0407,-0.11393 -0.12044,-0.20019 -0.23926,-0.25879 -0.11881,-0.0586 -0.28402,-0.0879 -0.4956,-0.0879 l -0.15137,0 0,-0.18066 2.83691,0 0,0.18066 -0.15136,0 c -0.23764,1e-5 -0.40691,0.0317 -0.50782,0.0952 -0.10091,0.0635 -0.17497,0.13998 -0.22216,0.2295 -0.0472,0.0895 -0.0708,0.31169 -0.0708,0.6665 l 0,1.90918 1.36231,0 c 0.0456,-0.95703 0.39143,-1.73502 1.0376,-2.33398 0.64615,-0.59896 1.40217,-0.89843 2.26806,-0.89844 0.83333,1e-5 1.57063,0.32064 2.21192,0.96191 0.64126,0.64128 0.9619,1.46322 0.96191,2.46582 -1e-5,0.96029 -0.30681,1.78304 -0.92041,2.46826 -0.61361,0.68523 -1.39242,1.02784 -2.33642,1.02784 -0.61199,0 -1.15398,-0.14323 -1.62598,-0.42969 -0.47201,-0.28646 -0.85287,-0.68441 -1.14258,-1.19385 -0.28972,-0.50944 -0.44108,-1.07991 -0.4541,-1.71142 z m 3.21289,-3.23243 c -0.63152,1e-5 -1.13933,0.26124 -1.52344,0.7837 -0.38412,0.52246 -0.57617,1.28174 -0.57617,2.27783 0,0.93099 0.17985,1.69027 0.53955,2.27783 0.3597,0.58757 0.88134,0.88135 1.56494,0.88135 0.66406,0 1.18733,-0.25798 1.56983,-0.77393 0.38248,-0.51595 0.57372,-1.26546 0.57373,-2.24853 -1e-5,-0.99609 -0.17986,-1.77816 -0.53955,-2.3462 -0.35971,-0.56802 -0.89601,-0.85204 -1.60889,-0.85205 z"/>
      <path
         d="m 140.57657,143.43602 1.76758,0 2.24121,-3.0957 c 0.16601,0.007 0.3011,0.01 0.40527,0.01 0.0423,1e-5 0.0879,-8.1e-4 0.13672,-0.002 0.0488,-0.002 0.0993,-0.004 0.15137,-0.007 l 0,1.92382 c -1e-5,0.41667 -0.0456,0.67546 -0.13672,0.77637 -0.1237,0.14323 -0.30925,0.21485 -0.55664,0.21485 l -0.25879,0 0,0.18066 2.83691,0 0,-0.18066 -0.24902,0 c -0.27995,0 -0.48015,-0.0911 -0.60059,-0.27344 -0.0684,-0.10091 -0.10254,-0.34017 -0.10254,-0.71778 l 0,-4.27734 c 0,-0.41666 0.0456,-0.67545 0.13672,-0.77637 0.12695,-0.14322 0.31575,-0.21483 0.56641,-0.21484 l 0.24902,0 0,-0.18066 -2.41211,0 c -0.70313,0 -1.22152,0.0513 -1.55517,0.1538 -0.33366,0.10255 -0.61687,0.29135 -0.84961,0.56641 -0.23275,0.27507 -0.34912,0.60303 -0.34912,0.98389 0,0.4069 0.13265,0.76009 0.39795,1.05957 0.26529,0.29948 0.67626,0.51107 1.23291,0.63476 l -1.36719,1.89942 c -0.3125,0.4362 -0.58106,0.72591 -0.80567,0.86914 -0.22461,0.14323 -0.51757,0.23437 -0.8789,0.27344 z m 4.70215,-3.40332 c -0.0619,0 -0.11557,8.2e-4 -0.16114,0.002 -0.0456,0.002 -0.083,0.002 -0.1123,0.002 -0.63151,1e-5 -1.10759,-0.13671 -1.42822,-0.41015 -0.32064,-0.27344 -0.48096,-0.62174 -0.48096,-1.04493 0,-0.4134 0.12939,-0.7495 0.38818,-1.0083 0.25879,-0.25878 0.6014,-0.38817 1.02784,-0.38818 0.18879,1e-5 0.44433,0.0309 0.7666,0.0928 z"/>
      <path
         d="m 138.33536,67.090111 0,-0.180664 0.24902,0 c 0.27995,0 0.47852,-0.08952 0.5957,-0.268555 0.0716,-0.107421 0.10742,-0.348306 0.10743,-0.722656 l 0,-4.277344 c -1e-5,-0.413406 -0.0456,-0.672194 -0.13672,-0.776367 -0.12696,-0.143223 -0.31576,-0.214837 -0.56641,-0.214844 l -0.24902,0 0,-0.180664 2.69531,0 c 0.98958,7e-6 1.74235,0.112311 2.2583,0.336914 0.51595,0.224616 0.93098,0.598964 1.24512,1.123047 0.31412,0.524093 0.47118,1.129561 0.47119,1.816406 -1e-5,0.921227 -0.27995,1.691083 -0.83984,2.309571 -0.62826,0.690104 -1.5853,1.035156 -2.8711,1.035156 z m 1.88965,-0.478516 c 0.41341,0.09115 0.76008,0.136719 1.04004,0.136719 0.7552,0 1.38183,-0.265299 1.87988,-0.795899 0.49804,-0.530597 0.74706,-1.249997 0.74707,-2.158203 -1e-5,-0.914709 -0.24903,-1.635737 -0.74707,-2.163086 -0.49805,-0.527337 -1.1377,-0.791009 -1.91895,-0.791015 -0.29297,6e-6 -0.62663,0.04721 -1.00097,0.141601 z"/>
      <path
         d="m 150.10132,76.284988 0,2.602539 1.20605,0 c 0.27669,4e-6 0.47933,-0.06103 0.60791,-0.183105 0.12858,-0.122066 0.21403,-0.363765 0.25635,-0.725098 l 0.18066,0 0,2.241211 -0.18066,0 c -0.003,-0.257159 -0.0366,-0.44596 -0.1001,-0.566406 -0.0635,-0.12044 -0.15137,-0.210772 -0.26367,-0.270996 -0.11231,-0.06022 -0.27914,-0.09033 -0.50049,-0.09033 l -1.20605,0 0,2.080078 c 0,0.335287 0.0212,0.556641 0.0635,0.664063 0.0325,0.08138 0.10091,0.151367 0.20508,0.20996 0.14323,0.07813 0.29297,0.117188 0.44922,0.117188 l 0.23926,0 0,0.180664 -2.8418,0 0,-0.180664 0.23438,0 c 0.27343,0 0.472,-0.07975 0.5957,-0.239258 0.0781,-0.104166 0.11719,-0.354817 0.11719,-0.751953 l 0,-4.277344 c 0,-0.33528 -0.0212,-0.556634 -0.0635,-0.664062 -0.0325,-0.08137 -0.0993,-0.151361 -0.20019,-0.209961 -0.13998,-0.07812 -0.28972,-0.117181 -0.44922,-0.117188 l -0.23438,0 0,-0.180664 4.92676,0 0.0635,1.455078 -0.1709,0 c -0.0846,-0.309239 -0.18311,-0.536289 -0.29541,-0.681152 -0.11231,-0.144851 -0.25066,-0.249831 -0.41504,-0.314941 -0.16439,-0.0651 -0.41911,-0.09765 -0.76416,-0.09766 z"/>
      <path
         d="m 156.66586,52.899429 0.1709,2.089844 -0.1709,0 c -0.17253,-0.520828 -0.39551,-0.91308 -0.66894,-1.176758 -0.39389,-0.380853 -0.90007,-0.571282 -1.51856,-0.571289 -0.8431,7e-6 -1.48437,0.333665 -1.92383,1.000977 -0.36784,0.563156 -0.55175,1.233728 -0.55175,2.011719 0,0.631513 0.12207,1.207684 0.36621,1.728515 0.24414,0.520835 0.56396,0.902507 0.95947,1.14502 0.39551,0.242513 0.80159,0.363769 1.21826,0.363769 0.24414,0 0.48014,-0.03092 0.70801,-0.09277 0.22786,-0.06185 0.44759,-0.152995 0.65918,-0.273438 l 0,-1.914062 c -10e-6,-0.332029 -0.0252,-0.549314 -0.0757,-0.651856 -0.0505,-0.102536 -0.12859,-0.18066 -0.23438,-0.234375 -0.1058,-0.05371 -0.29216,-0.08056 -0.55908,-0.08057 l 0,-0.185547 2.56348,0 0,0.185547 -0.12207,0 c -0.25392,3e-6 -0.42807,0.08464 -0.52247,0.253906 -0.0651,0.120446 -0.0977,0.358076 -0.0976,0.712891 l 0,2.026367 c -0.37436,0.201823 -0.74382,0.349935 -1.1084,0.444336 -0.36459,0.0944 -0.76986,0.141601 -1.21582,0.141601 -1.2793,0 -2.25098,-0.410156 -2.91504,-1.230468 -0.49805,-0.615233 -0.74707,-1.324868 -0.74707,-2.128907 0,-0.582678 0.13997,-1.140946 0.41992,-1.674804 0.33203,-0.63476 0.78776,-1.123041 1.36719,-1.464844 0.48502,-0.283196 1.05794,-0.424798 1.71875,-0.424805 0.24088,7e-6 0.45979,0.01954 0.65674,0.05859 0.19693,0.03907 0.47607,0.125332 0.8374,0.258789 0.18229,0.06837 0.30436,0.102546 0.36621,0.102539 0.0618,7e-6 0.11474,-0.02848 0.15869,-0.08545 0.0439,-0.05696 0.0708,-0.16845 0.0806,-0.334473 z"/>
      <path
         d="m 125.56047,57.558758 0,-0.180664 2.83691,0 0,0.180664 -0.23925,0 c -0.27019,6e-6 -0.46713,0.07976 -0.59082,0.239258 -0.0781,0.104172 -0.11719,0.354823 -0.11719,0.751953 l 0,3.237304 c 0,0.498049 -0.0545,0.901694 -0.16358,1.210938 -0.10905,0.309245 -0.29704,0.578614 -0.56396,0.808105 -0.26693,0.229493 -0.58919,0.344239 -0.9668,0.344239 -0.30599,0 -0.54687,-0.07568 -0.72265,-0.227051 -0.17578,-0.151367 -0.26368,-0.324707 -0.26368,-0.52002 0,-0.159504 0.0407,-0.279947 0.12208,-0.361328 0.10742,-0.10091 0.23274,-0.151366 0.37597,-0.151367 0.10417,1e-6 0.19775,0.03418 0.28076,0.102539 0.083,0.06836 0.18799,0.250652 0.31494,0.546875 0.0749,0.175782 0.1709,0.263672 0.28809,0.263672 0.0879,0 0.17008,-0.05371 0.24658,-0.161133 0.0765,-0.107421 0.11475,-0.297851 0.11475,-0.571289 l 0,-4.521484 c 0,-0.335281 -0.0212,-0.556635 -0.0635,-0.664063 -0.0326,-0.08137 -0.10091,-0.151361 -0.20508,-0.209961 -0.13997,-0.07812 -0.28808,-0.117181 -0.44433,-0.117187 z"/>
      <path
         d="m 165.53337,74.531845 0.16113,0.03418 -0.5664,1.796875 -5.12696,0 0,-0.180664 0.24903,0 c 0.27995,0 0.48014,-0.09115 0.60058,-0.273438 0.0684,-0.104166 0.10254,-0.345051 0.10254,-0.722656 l 0,-4.272461 c 0,-0.413406 -0.0456,-0.672194 -0.13672,-0.776367 -0.12695,-0.143223 -0.31575,-0.214837 -0.5664,-0.214844 l -0.24903,0 0,-0.180664 2.99805,0 0,0.180664 c -0.35156,-0.0032 -0.59815,0.0293 -0.73974,0.09766 -0.14161,0.06837 -0.23845,0.154629 -0.29053,0.258789 -0.0521,0.104173 -0.0781,0.353196 -0.0781,0.747071 l 0,4.160156 c 0,0.270183 0.026,0.45573 0.0781,0.556641 0.0391,0.06836 0.0993,0.118815 0.18066,0.151367 0.0814,0.03255 0.33529,0.04883 0.76172,0.04883 l 0.4834,0 c 0.50781,0 0.86425,-0.03744 1.06934,-0.112305 0.20507,-0.07487 0.39224,-0.207519 0.56152,-0.397949 0.16926,-0.190429 0.33853,-0.490721 0.50781,-0.900879 z"/>
      <path
         d="m 137.00508,51.708721 c 0.33203,0.572916 0.69091,0.994465 1.07666,1.264649 0.38574,0.27018 0.82438,0.424803 1.31592,0.463867 l 0,0.15625 c -0.44923,-0.01628 -0.92937,-0.10661 -1.44043,-0.270996 -0.51107,-0.16439 -0.99528,-0.392254 -1.45264,-0.683594 -0.45736,-0.291342 -0.85205,-0.6014 -1.18408,-0.930176 -0.46875,-0.188802 -0.83984,-0.388997 -1.11328,-0.600586 -0.39714,-0.315754 -0.70557,-0.703937 -0.92529,-1.164551 -0.21973,-0.460609 -0.32959,-1.005042 -0.32959,-1.6333 0,-0.989579 0.32063,-1.811519 0.96191,-2.465821 0.64127,-0.65429 1.41764,-0.981438 2.3291,-0.981445 0.86588,7e-6 1.61539,0.327969 2.24854,0.983887 0.63313,0.655929 0.9497,1.483565 0.9497,2.48291 0,0.810549 -0.22543,1.521812 -0.67626,2.133789 -0.45086,0.61198 -1.03761,1.027018 -1.76026,1.245117 z m -0.82031,-6.469726 c -0.59245,6e-6 -1.06934,0.211594 -1.43067,0.634765 -0.45573,0.530604 -0.68359,1.342778 -0.68359,2.436524 0,1.070965 0.23112,1.89616 0.69336,2.475586 0.35807,0.445964 0.8317,0.668945 1.4209,0.668945 0.61197,0 1.10514,-0.222981 1.47949,-0.668945 0.43945,-0.527343 0.65917,-1.305337 0.65918,-2.333985 -1e-5,-0.791011 -0.12045,-1.456701 -0.36133,-1.99707 -0.18555,-0.416661 -0.43213,-0.723464 -0.73974,-0.92041 -0.30763,-0.196934 -0.65349,-0.295404 -1.0376,-0.29541 z"/>
      <path
         d="m 160.9951,117.78133 -1.76758,0 -2.24121,-3.09571 c -0.16602,0.007 -0.30111,0.01 -0.40527,0.01 -0.0423,0 -0.0879,-8.1e-4 -0.13672,-0.002 -0.0488,-0.002 -0.0993,-0.004 -0.15137,-0.007 l 0,1.92383 c 0,0.41667 0.0456,0.67546 0.13672,0.77637 0.1237,0.14323 0.30924,0.21484 0.55664,0.21484 l 0.25879,0 0,0.18067 -2.83691,0 0,-0.18067 0.24902,0 c 0.27995,0 0.48014,-0.0911 0.60059,-0.27344 0.0684,-0.10091 0.10254,-0.34016 0.10254,-0.71777 l 0,-4.27734 c 0,-0.41666 -0.0456,-0.67545 -0.13672,-0.77637 -0.12696,-0.14322 -0.31576,-0.21484 -0.56641,-0.21484 l -0.24902,0 0,-0.18067 2.41211,0 c 0.70312,1e-5 1.22151,0.0513 1.55517,0.15381 0.33366,0.10255 0.61686,0.29135 0.84961,0.56641 0.23274,0.27507 0.34912,0.60303 0.34912,0.98388 0,0.40691 -0.13265,0.7601 -0.39795,1.05957 -0.2653,0.29949 -0.67627,0.51108 -1.23291,0.63477 l 1.36719,1.89941 c 0.3125,0.4362 0.58105,0.72592 0.80567,0.86914 0.2246,0.14323 0.51757,0.23438 0.8789,0.27344 z m -4.70215,-3.40332 c 0.0619,0 0.11556,8.1e-4 0.16114,0.002 0.0456,0.002 0.083,0.002 0.1123,0.002 0.63151,0 1.10758,-0.13672 1.42822,-0.41016 0.32064,-0.27343 0.48096,-0.62174 0.48096,-1.04492 0,-0.41341 -0.1294,-0.74951 -0.38818,-1.0083 -0.2588,-0.25878 -0.60141,-0.38818 -1.02783,-0.38818 -0.18881,0 -0.44434,0.0309 -0.76661,0.0928 z"/>
      <path
         d="m 140.27666,74.22683 0,2.290039 -0.18067,0 c -0.0586,-0.439449 -0.16358,-0.789383 -0.31494,-1.049805 -0.15137,-0.260411 -0.36703,-0.467116 -0.64697,-0.620117 -0.27995,-0.152989 -0.56967,-0.229486 -0.86914,-0.229492 -0.33855,6e-6 -0.61849,0.103359 -0.83985,0.310058 -0.22135,0.206712 -0.33203,0.4419 -0.33203,0.705567 0,0.201828 0.07,0.385747 0.20996,0.551757 0.20183,0.244146 0.68197,0.569666 1.44043,0.976563 0.61849,0.332035 1.04085,0.586754 1.26709,0.76416 0.22624,0.177412 0.40039,0.386559 0.52246,0.627441 0.12207,0.240888 0.18311,0.493166 0.18311,0.756836 0,0.501304 -0.1945,0.933432 -0.5835,1.296387 -0.389,0.362956 -0.88949,0.544434 -1.50146,0.544434 -0.19206,0 -0.37272,-0.01465 -0.54199,-0.04395 -0.10092,-0.01628 -0.31006,-0.07568 -0.62744,-0.178222 -0.31739,-0.102539 -0.5184,-0.153809 -0.60303,-0.153809 -0.0814,0 -0.14567,0.02441 -0.19287,0.07324 -0.0472,0.04883 -0.0822,0.14974 -0.10498,0.302735 l -0.18067,0 0,-2.270508 0.18067,0 c 0.0846,0.475262 0.19856,0.830893 0.34179,1.066894 0.14323,0.236004 0.36214,0.43213 0.65674,0.588379 0.2946,0.156251 0.61768,0.234376 0.96924,0.234375 0.4069,1e-6 0.72835,-0.107421 0.96436,-0.322265 0.23599,-0.214843 0.354,-0.468749 0.354,-0.761719 0,-0.162759 -0.0448,-0.327147 -0.13428,-0.493164 -0.0895,-0.166014 -0.22868,-0.320636 -0.41748,-0.463867 -0.12695,-0.09765 -0.47363,-0.305174 -1.04004,-0.622559 -0.56641,-0.31738 -0.96924,-0.570472 -1.20849,-0.759277 -0.23926,-0.188799 -0.42074,-0.397132 -0.54444,-0.625 -0.1237,-0.22786 -0.18554,-0.478511 -0.18554,-0.751953 0,-0.475255 0.18229,-0.884597 0.54687,-1.228028 0.36458,-0.343418 0.82845,-0.51513 1.3916,-0.515136 0.35156,6e-6 0.72428,0.08627 1.11817,0.258789 0.18228,0.08139 0.31087,0.122076 0.38574,0.12207 0.0846,6e-6 0.1538,-0.02522 0.20752,-0.07568 0.0537,-0.05045 0.0968,-0.152174 0.12939,-0.305175 z"/>
      <path
         d="m 147.57137,90.631683 0,-0.180664 2.34375,0 0,0.180664 -0.24903,0 c -0.26042,7e-6 -0.46062,0.109056 -0.60058,0.327149 -0.0684,0.100917 -0.10255,0.335292 -0.10254,0.703125 l 0,2.685547 c -1e-5,0.664064 -0.0659,1.1792 -0.19776,1.54541 -0.13184,0.366212 -0.39063,0.680339 -0.77636,0.942383 -0.38575,0.262044 -0.91065,0.393066 -1.57471,0.393066 -0.72266,0 -1.27116,-0.125326 -1.64551,-0.375977 -0.37435,-0.25065 -0.63965,-0.587564 -0.7959,-1.010742 -0.10417,-0.289712 -0.15625,-0.833331 -0.15625,-1.630859 l 0,-2.587891 c 0,-0.406895 -0.0562,-0.673822 -0.16845,-0.800781 -0.11231,-0.126947 -0.29379,-0.190423 -0.54444,-0.19043 l -0.24902,0 0,-0.180664 2.86133,0 0,0.180664 -0.25391,0 c -0.27344,7e-6 -0.46875,0.08627 -0.58594,0.258789 -0.0814,0.117194 -0.12207,0.361334 -0.12207,0.732422 l 0,2.885742 c 0,0.257164 0.0236,0.55176 0.0708,0.88379 0.0472,0.332032 0.13265,0.590821 0.25635,0.776367 0.1237,0.185547 0.30192,0.338542 0.53467,0.458984 0.23274,0.120443 0.51839,0.180664 0.85693,0.180664 0.43294,0 0.82031,-0.0944 1.16211,-0.283203 0.34179,-0.188801 0.57535,-0.4305 0.70069,-0.725098 0.12532,-0.294594 0.18798,-0.793455 0.18798,-1.496582 l 0,-2.680664 c 0,-0.413405 -0.0456,-0.672194 -0.13671,-0.776367 -0.12696,-0.143223 -0.31577,-0.214837 -0.56641,-0.214844 z"/>
      <path
         d="m 159.79143,90.451019 0,0.180664 c -0.23438,0.04232 -0.41179,0.117194 -0.53223,0.22461 -0.17253,0.159511 -0.32553,0.403651 -0.45898,0.732422 l -2.30957,5.634765 -0.18067,0 -2.48047,-5.708008 c -0.12695,-0.292962 -0.21647,-0.471999 -0.26855,-0.537109 -0.0814,-0.100905 -0.18148,-0.179844 -0.30029,-0.236816 -0.11882,-0.05696 -0.27914,-0.09358 -0.48096,-0.109864 l 0,-0.180664 2.70508,0 0,0.180664 c -0.306,0.0293 -0.50456,0.08139 -0.59571,0.15625 -0.0911,0.07488 -0.13672,0.170905 -0.13671,0.288086 -1e-5,0.162767 0.0749,0.416673 0.2246,0.761719 l 1.68457,3.881836 1.5625,-3.833008 c 0.15299,-0.377598 0.22949,-0.639642 0.2295,-0.786133 -1e-5,-0.09439 -0.0472,-0.184727 -0.1416,-0.270996 -0.0944,-0.08626 -0.25392,-0.147292 -0.47852,-0.183105 -0.0163,-0.0032 -0.0439,-0.0081 -0.083,-0.01465 l 0,-0.180664 z"/>
      <path
         d="m 171.32495,90.451019 0,0.180664 c -0.17253,7e-6 -0.31251,0.03093 -0.41992,0.09277 -0.10743,0.06185 -0.20997,0.177415 -0.30762,0.346679 -0.0651,0.113939 -0.16765,0.385748 -0.30762,0.81543 l -1.8457,5.336914 -0.19531,0 -1.50879,-4.233398 -1.49902,4.233398 -0.17578,0 -1.96778,-5.498047 c -0.14648,-0.41015 -0.23926,-0.652663 -0.27832,-0.727539 -0.0651,-0.123691 -0.15381,-0.215651 -0.26611,-0.275879 -0.11231,-0.06021 -0.26449,-0.09032 -0.45654,-0.09033 l 0,-0.180664 2.45117,0 0,0.180664 -0.11719,0 c -0.17253,7e-6 -0.30436,0.03907 -0.39551,0.117188 -0.0911,0.07813 -0.13672,0.172532 -0.13672,0.283203 0,0.113938 0.0716,0.375982 0.21485,0.786133 l 1.30371,3.71582 1.09863,-3.15918 -0.19531,-0.55664 -0.15625,-0.444336 c -0.0684,-0.162755 -0.14486,-0.305984 -0.22949,-0.429688 -0.0423,-0.06184 -0.0944,-0.113926 -0.15625,-0.15625 -0.0814,-0.05859 -0.16277,-0.100905 -0.24414,-0.126953 -0.0619,-0.01953 -0.15951,-0.02929 -0.29297,-0.0293 l 0,-0.180664 2.57812,0 0,0.180664 -0.17578,0 c -0.1823,7e-6 -0.31576,0.03907 -0.40039,0.117188 -0.0846,0.07813 -0.12696,0.183925 -0.12695,0.317383 -1e-5,0.166021 0.0732,0.455734 0.21972,0.86914 l 1.26953,3.598633 1.25977,-3.647461 c 0.14322,-0.40364 0.21484,-0.683588 0.21484,-0.839844 0,-0.07486 -0.0236,-0.14485 -0.0708,-0.209961 -0.0472,-0.0651 -0.10661,-0.11067 -0.17822,-0.136718 -0.12371,-0.04557 -0.28484,-0.06835 -0.4834,-0.06836 l 0,-0.180664 z"/>
    </g>
    <ellipse
       style="fill:none;stroke:#222222;stroke-width:1.53109646;stroke-linecap:round;stroke-linejoin:miter;stroke-miterlimit:4;stroke-opacity:1;stroke-dasharray:none;stroke-dashoffset:0"
       cx="126.17598"
       cy="91.71386"
       rx="42.198975"
       ry="44.724598"
       transform="matrix(1.20905,0,0,1.14313,-26.7984,-19.5463)" />
    <ellipse
       style="fill:none;stroke:#222222;stroke-width:1.53109646;stroke-linecap:round;stroke-linejoin:miter;stroke-miterlimit:4;stroke-opacity:1;stroke-dasharray:none;stroke-dashoffset:0"
       cx="126.17598"
       cy="91.71386"
       rx="42.198975"
       ry="44.724598"
       transform="matrix(1.20905,0,0,1.14313,-77.8371,-19.5463)" />
    <ellipse
       cx="126.17598"
       cy="91.71386"
       rx="42.198975"
       ry="44.724598"
       style="fill:none;stroke:#222222;stroke-width:1.53109646;stroke-linecap:round;stroke-linejoin:miter;stroke-miterlimit:4;stroke-opacity:1;stroke-dasharray:none;stroke-dashoffset:0"
       transform="matrix(1.20905,0,0,1.14313,-52.4739,24.5377)" />
  </g>
</svg>
